<svg width="632" height="628" viewBox="0 0 632 628" fill="none" xmlns="http://www.w3.org/2000/svg">
<g filter="url(#filter0_d_4185_1462)">
<mask id="path-1-inside-1_4185_1462" fill="white">
<path fill-rule="evenodd" clip-rule="evenodd" d="M40 34C17.9086 34 0 51.9086 0 74V578C0 600.091 17.9086 618 40 618H592C614.091 618 632 600.091 632 578V74C632 51.9086 614.091 34 592 34H40ZM84 526C84 508.327 69.6731 494 52 494C34.3269 494 20 508.327 20 526C20 543.673 34.3269 558 52 558C69.6731 558 84 543.673 84 526ZM172 526C172 508.327 157.673 494 140 494C122.327 494 108 508.327 108 526C108 543.673 122.327 558 140 558C157.673 558 172 543.673 172 526ZM260 526C260 508.327 245.673 494 228 494C210.327 494 196 508.327 196 526C196 543.673 210.327 558 228 558C245.673 558 260 543.673 260 526ZM348 526C348 508.327 333.673 494 316 494C298.327 494 284 508.327 284 526C284 543.673 298.327 558 316 558C333.673 558 348 543.673 348 526ZM436 526C436 508.327 421.673 494 404 494C386.327 494 372 508.327 372 526C372 543.673 386.327 558 404 558C421.673 558 436 543.673 436 526ZM524 526C524 508.327 509.673 494 492 494C474.327 494 460 508.327 460 526C460 543.673 474.327 558 492 558C509.673 558 524 543.673 524 526ZM612 526C612 508.327 597.673 494 580 494C562.327 494 548 508.327 548 526C548 543.673 562.327 558 580 558C597.673 558 612 543.673 612 526ZM84 438C84 420.327 69.6731 406 52 406C34.3269 406 20 420.327 20 438C20 455.673 34.3269 470 52 470C69.6731 470 84 455.673 84 438ZM172 438C172 420.327 157.673 406 140 406C122.327 406 108 420.327 108 438C108 455.673 122.327 470 140 470C157.673 470 172 455.673 172 438ZM260 438C260 420.327 245.673 406 228 406C210.327 406 196 420.327 196 438C196 455.673 210.327 470 228 470C245.673 470 260 455.673 260 438ZM348 438C348 420.327 333.673 406 316 406C298.327 406 284 420.327 284 438C284 455.673 298.327 470 316 470C333.673 470 348 455.673 348 438ZM436 438C436 420.327 421.673 406 404 406C386.327 406 372 420.327 372 438C372 455.673 386.327 470 404 470C421.673 470 436 455.673 436 438ZM524 438C524 420.327 509.673 406 492 406C474.327 406 460 420.327 460 438C460 455.673 474.327 470 492 470C509.673 470 524 455.673 524 438ZM612 438C612 420.327 597.673 406 580 406C562.327 406 548 420.327 548 438C548 455.673 562.327 470 580 470C597.673 470 612 455.673 612 438ZM84 350C84 332.327 69.6731 318 52 318C34.3269 318 20 332.327 20 350C20 367.673 34.3269 382 52 382C69.6731 382 84 367.673 84 350ZM172 350C172 332.327 157.673 318 140 318C122.327 318 108 332.327 108 350C108 367.673 122.327 382 140 382C157.673 382 172 367.673 172 350ZM260 350C260 332.327 245.673 318 228 318C210.327 318 196 332.327 196 350C196 367.673 210.327 382 228 382C245.673 382 260 367.673 260 350ZM348 350C348 332.327 333.673 318 316 318C298.327 318 284 332.327 284 350C284 367.673 298.327 382 316 382C333.673 382 348 367.673 348 350ZM436 350C436 332.327 421.673 318 404 318C386.327 318 372 332.327 372 350C372 367.673 386.327 382 404 382C421.673 382 436 367.673 436 350ZM524 350C524 332.327 509.673 318 492 318C474.327 318 460 332.327 460 350C460 367.673 474.327 382 492 382C509.673 382 524 367.673 524 350ZM612 350C612 332.327 597.673 318 580 318C562.327 318 548 332.327 548 350C548 367.673 562.327 382 580 382C597.673 382 612 367.673 612 350ZM84 262C84 244.327 69.6731 230 52 230C34.3269 230 20 244.327 20 262C20 279.673 34.3269 294 52 294C69.6731 294 84 279.673 84 262ZM172 262C172 244.327 157.673 230 140 230C122.327 230 108 244.327 108 262C108 279.673 122.327 294 140 294C157.673 294 172 279.673 172 262ZM260 262C260 244.327 245.673 230 228 230C210.327 230 196 244.327 196 262C196 279.673 210.327 294 228 294C245.673 294 260 279.673 260 262ZM348 262C348 244.327 333.673 230 316 230C298.327 230 284 244.327 284 262C284 279.673 298.327 294 316 294C333.673 294 348 279.673 348 262ZM436 262C436 244.327 421.673 230 404 230C386.327 230 372 244.327 372 262C372 279.673 386.327 294 404 294C421.673 294 436 279.673 436 262ZM524 262C524 244.327 509.673 230 492 230C474.327 230 460 244.327 460 262C460 279.673 474.327 294 492 294C509.673 294 524 279.673 524 262ZM612 262C612 244.327 597.673 230 580 230C562.327 230 548 244.327 548 262C548 279.673 562.327 294 580 294C597.673 294 612 279.673 612 262ZM84 174C84 156.327 69.6731 142 52 142C34.3269 142 20 156.327 20 174C20 191.673 34.3269 206 52 206C69.6731 206 84 191.673 84 174ZM172 174C172 156.327 157.673 142 140 142C122.327 142 108 156.327 108 174C108 191.673 122.327 206 140 206C157.673 206 172 191.673 172 174ZM260 174C260 156.327 245.673 142 228 142C210.327 142 196 156.327 196 174C196 191.673 210.327 206 228 206C245.673 206 260 191.673 260 174ZM348 174C348 156.327 333.673 142 316 142C298.327 142 284 156.327 284 174C284 191.673 298.327 206 316 206C333.673 206 348 191.673 348 174ZM436 174C436 156.327 421.673 142 404 142C386.327 142 372 156.327 372 174C372 191.673 386.327 206 404 206C421.673 206 436 191.673 436 174ZM524 174C524 156.327 509.673 142 492 142C474.327 142 460 156.327 460 174C460 191.673 474.327 206 492 206C509.673 206 524 191.673 524 174ZM612 174C612 156.327 597.673 142 580 142C562.327 142 548 156.327 548 174C548 191.673 562.327 206 580 206C597.673 206 612 191.673 612 174ZM84 86C84 68.3269 69.6731 54 52 54C34.3269 54 20 68.3269 20 86C20 103.673 34.3269 118 52 118C69.6731 118 84 103.673 84 86ZM172 86C172 68.3269 157.673 54 140 54C122.327 54 108 68.3269 108 86C108 103.673 122.327 118 140 118C157.673 118 172 103.673 172 86ZM260 86C260 68.3269 245.673 54 228 54C210.327 54 196 68.3269 196 86C196 103.673 210.327 118 228 118C245.673 118 260 103.673 260 86ZM348 86C348 68.3269 333.673 54 316 54C298.327 54 284 68.3269 284 86C284 103.673 298.327 118 316 118C333.673 118 348 103.673 348 86ZM436 86C436 68.3269 421.673 54 404 54C386.327 54 372 68.3269 372 86C372 103.673 386.327 118 404 118C421.673 118 436 103.673 436 86ZM524 86C524 68.3269 509.673 54 492 54C474.327 54 460 68.3269 460 86C460 103.673 474.327 118 492 118C509.673 118 524 103.673 524 86ZM612 86C612 68.3269 597.673 54 580 54C562.327 54 548 68.3269 548 86C548 103.673 562.327 118 580 118C597.673 118 612 103.673 612 86Z"/>
</mask>
<path fill-rule="evenodd" clip-rule="evenodd" d="M40 34C17.9086 34 0 51.9086 0 74V578C0 600.091 17.9086 618 40 618H592C614.091 618 632 600.091 632 578V74C632 51.9086 614.091 34 592 34H40ZM84 526C84 508.327 69.6731 494 52 494C34.3269 494 20 508.327 20 526C20 543.673 34.3269 558 52 558C69.6731 558 84 543.673 84 526ZM172 526C172 508.327 157.673 494 140 494C122.327 494 108 508.327 108 526C108 543.673 122.327 558 140 558C157.673 558 172 543.673 172 526ZM260 526C260 508.327 245.673 494 228 494C210.327 494 196 508.327 196 526C196 543.673 210.327 558 228 558C245.673 558 260 543.673 260 526ZM348 526C348 508.327 333.673 494 316 494C298.327 494 284 508.327 284 526C284 543.673 298.327 558 316 558C333.673 558 348 543.673 348 526ZM436 526C436 508.327 421.673 494 404 494C386.327 494 372 508.327 372 526C372 543.673 386.327 558 404 558C421.673 558 436 543.673 436 526ZM524 526C524 508.327 509.673 494 492 494C474.327 494 460 508.327 460 526C460 543.673 474.327 558 492 558C509.673 558 524 543.673 524 526ZM612 526C612 508.327 597.673 494 580 494C562.327 494 548 508.327 548 526C548 543.673 562.327 558 580 558C597.673 558 612 543.673 612 526ZM84 438C84 420.327 69.6731 406 52 406C34.3269 406 20 420.327 20 438C20 455.673 34.3269 470 52 470C69.6731 470 84 455.673 84 438ZM172 438C172 420.327 157.673 406 140 406C122.327 406 108 420.327 108 438C108 455.673 122.327 470 140 470C157.673 470 172 455.673 172 438ZM260 438C260 420.327 245.673 406 228 406C210.327 406 196 420.327 196 438C196 455.673 210.327 470 228 470C245.673 470 260 455.673 260 438ZM348 438C348 420.327 333.673 406 316 406C298.327 406 284 420.327 284 438C284 455.673 298.327 470 316 470C333.673 470 348 455.673 348 438ZM436 438C436 420.327 421.673 406 404 406C386.327 406 372 420.327 372 438C372 455.673 386.327 470 404 470C421.673 470 436 455.673 436 438ZM524 438C524 420.327 509.673 406 492 406C474.327 406 460 420.327 460 438C460 455.673 474.327 470 492 470C509.673 470 524 455.673 524 438ZM612 438C612 420.327 597.673 406 580 406C562.327 406 548 420.327 548 438C548 455.673 562.327 470 580 470C597.673 470 612 455.673 612 438ZM84 350C84 332.327 69.6731 318 52 318C34.3269 318 20 332.327 20 350C20 367.673 34.3269 382 52 382C69.6731 382 84 367.673 84 350ZM172 350C172 332.327 157.673 318 140 318C122.327 318 108 332.327 108 350C108 367.673 122.327 382 140 382C157.673 382 172 367.673 172 350ZM260 350C260 332.327 245.673 318 228 318C210.327 318 196 332.327 196 350C196 367.673 210.327 382 228 382C245.673 382 260 367.673 260 350ZM348 350C348 332.327 333.673 318 316 318C298.327 318 284 332.327 284 350C284 367.673 298.327 382 316 382C333.673 382 348 367.673 348 350ZM436 350C436 332.327 421.673 318 404 318C386.327 318 372 332.327 372 350C372 367.673 386.327 382 404 382C421.673 382 436 367.673 436 350ZM524 350C524 332.327 509.673 318 492 318C474.327 318 460 332.327 460 350C460 367.673 474.327 382 492 382C509.673 382 524 367.673 524 350ZM612 350C612 332.327 597.673 318 580 318C562.327 318 548 332.327 548 350C548 367.673 562.327 382 580 382C597.673 382 612 367.673 612 350ZM84 262C84 244.327 69.6731 230 52 230C34.3269 230 20 244.327 20 262C20 279.673 34.3269 294 52 294C69.6731 294 84 279.673 84 262ZM172 262C172 244.327 157.673 230 140 230C122.327 230 108 244.327 108 262C108 279.673 122.327 294 140 294C157.673 294 172 279.673 172 262ZM260 262C260 244.327 245.673 230 228 230C210.327 230 196 244.327 196 262C196 279.673 210.327 294 228 294C245.673 294 260 279.673 260 262ZM348 262C348 244.327 333.673 230 316 230C298.327 230 284 244.327 284 262C284 279.673 298.327 294 316 294C333.673 294 348 279.673 348 262ZM436 262C436 244.327 421.673 230 404 230C386.327 230 372 244.327 372 262C372 279.673 386.327 294 404 294C421.673 294 436 279.673 436 262ZM524 262C524 244.327 509.673 230 492 230C474.327 230 460 244.327 460 262C460 279.673 474.327 294 492 294C509.673 294 524 279.673 524 262ZM612 262C612 244.327 597.673 230 580 230C562.327 230 548 244.327 548 262C548 279.673 562.327 294 580 294C597.673 294 612 279.673 612 262ZM84 174C84 156.327 69.6731 142 52 142C34.3269 142 20 156.327 20 174C20 191.673 34.3269 206 52 206C69.6731 206 84 191.673 84 174ZM172 174C172 156.327 157.673 142 140 142C122.327 142 108 156.327 108 174C108 191.673 122.327 206 140 206C157.673 206 172 191.673 172 174ZM260 174C260 156.327 245.673 142 228 142C210.327 142 196 156.327 196 174C196 191.673 210.327 206 228 206C245.673 206 260 191.673 260 174ZM348 174C348 156.327 333.673 142 316 142C298.327 142 284 156.327 284 174C284 191.673 298.327 206 316 206C333.673 206 348 191.673 348 174ZM436 174C436 156.327 421.673 142 404 142C386.327 142 372 156.327 372 174C372 191.673 386.327 206 404 206C421.673 206 436 191.673 436 174ZM524 174C524 156.327 509.673 142 492 142C474.327 142 460 156.327 460 174C460 191.673 474.327 206 492 206C509.673 206 524 191.673 524 174ZM612 174C612 156.327 597.673 142 580 142C562.327 142 548 156.327 548 174C548 191.673 562.327 206 580 206C597.673 206 612 191.673 612 174ZM84 86C84 68.3269 69.6731 54 52 54C34.3269 54 20 68.3269 20 86C20 103.673 34.3269 118 52 118C69.6731 118 84 103.673 84 86ZM172 86C172 68.3269 157.673 54 140 54C122.327 54 108 68.3269 108 86C108 103.673 122.327 118 140 118C157.673 118 172 103.673 172 86ZM260 86C260 68.3269 245.673 54 228 54C210.327 54 196 68.3269 196 86C196 103.673 210.327 118 228 118C245.673 118 260 103.673 260 86ZM348 86C348 68.3269 333.673 54 316 54C298.327 54 284 68.3269 284 86C284 103.673 298.327 118 316 118C333.673 118 348 103.673 348 86ZM436 86C436 68.3269 421.673 54 404 54C386.327 54 372 68.3269 372 86C372 103.673 386.327 118 404 118C421.673 118 436 103.673 436 86ZM524 86C524 68.3269 509.673 54 492 54C474.327 54 460 68.3269 460 86C460 103.673 474.327 118 492 118C509.673 118 524 103.673 524 86ZM612 86C612 68.3269 597.673 54 580 54C562.327 54 548 68.3269 548 86C548 103.673 562.327 118 580 118C597.673 118 612 103.673 612 86Z" fill="black"/>
<path d="M0 74H3C3 53.5655 19.5655 37 40 37V34V31C16.2518 31 -3 50.2517 -3 74H0ZM0 578H3V74H0H-3V578H0ZM40 618V615C19.5655 615 3 598.435 3 578H0H-3C-3 601.748 16.2517 621 40 621V618ZM592 618V615H40V618V621H592V618ZM632 578H629C629 598.435 612.435 615 592 615V618V621C615.748 621 635 601.748 635 578H632ZM632 74H629V578H632H635V74H632ZM592 34V37C612.435 37 629 53.5655 629 74H632H635C635 50.2518 615.748 31 592 31V34ZM40 34V37H592V34V31H40V34ZM52 494V497C68.0163 497 81 509.984 81 526H84H87C87 506.67 71.33 491 52 491V494ZM20 526H23C23 509.984 35.9837 497 52 497V494V491C32.67 491 17 506.67 17 526H20ZM52 558V555C35.9837 555 23 542.016 23 526H20H17C17 545.33 32.67 561 52 561V558ZM84 526H81C81 542.016 68.0163 555 52 555V558V561C71.33 561 87 545.33 87 526H84ZM140 494V497C156.016 497 169 509.984 169 526H172H175C175 506.67 159.33 491 140 491V494ZM108 526H111C111 509.984 123.984 497 140 497V494V491C120.67 491 105 506.67 105 526H108ZM140 558V555C123.984 555 111 542.016 111 526H108H105C105 545.33 120.67 561 140 561V558ZM172 526H169C169 542.016 156.016 555 140 555V558V561C159.33 561 175 545.33 175 526H172ZM228 494V497C244.016 497 257 509.984 257 526H260H263C263 506.67 247.33 491 228 491V494ZM196 526H199C199 509.984 211.984 497 228 497V494V491C208.67 491 193 506.67 193 526H196ZM228 558V555C211.984 555 199 542.016 199 526H196H193C193 545.33 208.67 561 228 561V558ZM260 526H257C257 542.016 244.016 555 228 555V558V561C247.33 561 263 545.33 263 526H260ZM316 494V497C332.016 497 345 509.984 345 526H348H351C351 506.67 335.33 491 316 491V494ZM284 526H287C287 509.984 299.984 497 316 497V494V491C296.67 491 281 506.67 281 526H284ZM316 558V555C299.984 555 287 542.016 287 526H284H281C281 545.33 296.67 561 316 561V558ZM348 526H345C345 542.016 332.016 555 316 555V558V561C335.33 561 351 545.33 351 526H348ZM404 494V497C420.016 497 433 509.984 433 526H436H439C439 506.67 423.33 491 404 491V494ZM372 526H375C375 509.984 387.984 497 404 497V494V491C384.67 491 369 506.67 369 526H372ZM404 558V555C387.984 555 375 542.016 375 526H372H369C369 545.33 384.67 561 404 561V558ZM436 526H433C433 542.016 420.016 555 404 555V558V561C423.33 561 439 545.33 439 526H436ZM492 494V497C508.016 497 521 509.984 521 526H524H527C527 506.67 511.33 491 492 491V494ZM460 526H463C463 509.984 475.984 497 492 497V494V491C472.67 491 457 506.67 457 526H460ZM492 558V555C475.984 555 463 542.016 463 526H460H457C457 545.33 472.67 561 492 561V558ZM524 526H521C521 542.016 508.016 555 492 555V558V561C511.33 561 527 545.33 527 526H524ZM580 494V497C596.016 497 609 509.984 609 526H612H615C615 506.67 599.33 491 580 491V494ZM548 526H551C551 509.984 563.984 497 580 497V494V491C560.67 491 545 506.67 545 526H548ZM580 558V555C563.984 555 551 542.016 551 526H548H545C545 545.33 560.67 561 580 561V558ZM612 526H609C609 542.016 596.016 555 580 555V558V561C599.33 561 615 545.33 615 526H612ZM52 406V409C68.0163 409 81 421.984 81 438H84H87C87 418.67 71.33 403 52 403V406ZM20 438H23C23 421.984 35.9837 409 52 409V406V403C32.67 403 17 418.67 17 438H20ZM52 470V467C35.9837 467 23 454.016 23 438H20H17C17 457.33 32.67 473 52 473V470ZM84 438H81C81 454.016 68.0163 467 52 467V470V473C71.33 473 87 457.33 87 438H84ZM140 406V409C156.016 409 169 421.984 169 438H172H175C175 418.67 159.33 403 140 403V406ZM108 438H111C111 421.984 123.984 409 140 409V406V403C120.67 403 105 418.67 105 438H108ZM140 470V467C123.984 467 111 454.016 111 438H108H105C105 457.33 120.67 473 140 473V470ZM172 438H169C169 454.016 156.016 467 140 467V470V473C159.33 473 175 457.33 175 438H172ZM228 406V409C244.016 409 257 421.984 257 438H260H263C263 418.67 247.33 403 228 403V406ZM196 438H199C199 421.984 211.984 409 228 409V406V403C208.67 403 193 418.67 193 438H196ZM228 470V467C211.984 467 199 454.016 199 438H196H193C193 457.33 208.67 473 228 473V470ZM260 438H257C257 454.016 244.016 467 228 467V470V473C247.33 473 263 457.33 263 438H260ZM316 406V409C332.016 409 345 421.984 345 438H348H351C351 418.67 335.33 403 316 403V406ZM284 438H287C287 421.984 299.984 409 316 409V406V403C296.67 403 281 418.67 281 438H284ZM316 470V467C299.984 467 287 454.016 287 438H284H281C281 457.33 296.67 473 316 473V470ZM348 438H345C345 454.016 332.016 467 316 467V470V473C335.33 473 351 457.33 351 438H348ZM404 406V409C420.016 409 433 421.984 433 438H436H439C439 418.67 423.33 403 404 403V406ZM372 438H375C375 421.984 387.984 409 404 409V406V403C384.67 403 369 418.67 369 438H372ZM404 470V467C387.984 467 375 454.016 375 438H372H369C369 457.33 384.67 473 404 473V470ZM436 438H433C433 454.016 420.016 467 404 467V470V473C423.33 473 439 457.33 439 438H436ZM492 406V409C508.016 409 521 421.984 521 438H524H527C527 418.67 511.33 403 492 403V406ZM460 438H463C463 421.984 475.984 409 492 409V406V403C472.67 403 457 418.67 457 438H460ZM492 470V467C475.984 467 463 454.016 463 438H460H457C457 457.33 472.67 473 492 473V470ZM524 438H521C521 454.016 508.016 467 492 467V470V473C511.33 473 527 457.33 527 438H524ZM580 406V409C596.016 409 609 421.984 609 438H612H615C615 418.67 599.33 403 580 403V406ZM548 438H551C551 421.984 563.984 409 580 409V406V403C560.67 403 545 418.67 545 438H548ZM580 470V467C563.984 467 551 454.016 551 438H548H545C545 457.33 560.67 473 580 473V470ZM612 438H609C609 454.016 596.016 467 580 467V470V473C599.33 473 615 457.33 615 438H612ZM52 318V321C68.0163 321 81 333.984 81 350H84H87C87 330.67 71.33 315 52 315V318ZM20 350H23C23 333.984 35.9837 321 52 321V318V315C32.67 315 17 330.67 17 350H20ZM52 382V379C35.9837 379 23 366.016 23 350H20H17C17 369.33 32.67 385 52 385V382ZM84 350H81C81 366.016 68.0163 379 52 379V382V385C71.33 385 87 369.33 87 350H84ZM140 318V321C156.016 321 169 333.984 169 350H172H175C175 330.67 159.33 315 140 315V318ZM108 350H111C111 333.984 123.984 321 140 321V318V315C120.67 315 105 330.67 105 350H108ZM140 382V379C123.984 379 111 366.016 111 350H108H105C105 369.33 120.67 385 140 385V382ZM172 350H169C169 366.016 156.016 379 140 379V382V385C159.33 385 175 369.33 175 350H172ZM228 318V321C244.016 321 257 333.984 257 350H260H263C263 330.67 247.33 315 228 315V318ZM196 350H199C199 333.984 211.984 321 228 321V318V315C208.67 315 193 330.67 193 350H196ZM228 382V379C211.984 379 199 366.016 199 350H196H193C193 369.33 208.67 385 228 385V382ZM260 350H257C257 366.016 244.016 379 228 379V382V385C247.33 385 263 369.33 263 350H260ZM316 318V321C332.016 321 345 333.984 345 350H348H351C351 330.67 335.33 315 316 315V318ZM284 350H287C287 333.984 299.984 321 316 321V318V315C296.67 315 281 330.67 281 350H284ZM316 382V379C299.984 379 287 366.016 287 350H284H281C281 369.33 296.67 385 316 385V382ZM348 350H345C345 366.016 332.016 379 316 379V382V385C335.33 385 351 369.33 351 350H348ZM404 318V321C420.016 321 433 333.984 433 350H436H439C439 330.67 423.33 315 404 315V318ZM372 350H375C375 333.984 387.984 321 404 321V318V315C384.67 315 369 330.67 369 350H372ZM404 382V379C387.984 379 375 366.016 375 350H372H369C369 369.33 384.67 385 404 385V382ZM436 350H433C433 366.016 420.016 379 404 379V382V385C423.33 385 439 369.33 439 350H436ZM492 318V321C508.016 321 521 333.984 521 350H524H527C527 330.67 511.33 315 492 315V318ZM460 350H463C463 333.984 475.984 321 492 321V318V315C472.67 315 457 330.67 457 350H460ZM492 382V379C475.984 379 463 366.016 463 350H460H457C457 369.33 472.67 385 492 385V382ZM524 350H521C521 366.016 508.016 379 492 379V382V385C511.33 385 527 369.33 527 350H524ZM580 318V321C596.016 321 609 333.984 609 350H612H615C615 330.67 599.33 315 580 315V318ZM548 350H551C551 333.984 563.984 321 580 321V318V315C560.67 315 545 330.67 545 350H548ZM580 382V379C563.984 379 551 366.016 551 350H548H545C545 369.33 560.67 385 580 385V382ZM612 350H609C609 366.016 596.016 379 580 379V382V385C599.33 385 615 369.33 615 350H612ZM52 230V233C68.0163 233 81 245.984 81 262H84H87C87 242.67 71.33 227 52 227V230ZM20 262H23C23 245.984 35.9837 233 52 233V230V227C32.67 227 17 242.67 17 262H20ZM52 294V291C35.9837 291 23 278.016 23 262H20H17C17 281.33 32.67 297 52 297V294ZM84 262H81C81 278.016 68.0163 291 52 291V294V297C71.33 297 87 281.33 87 262H84ZM140 230V233C156.016 233 169 245.984 169 262H172H175C175 242.67 159.33 227 140 227V230ZM108 262H111C111 245.984 123.984 233 140 233V230V227C120.67 227 105 242.67 105 262H108ZM140 294V291C123.984 291 111 278.016 111 262H108H105C105 281.33 120.67 297 140 297V294ZM172 262H169C169 278.016 156.016 291 140 291V294V297C159.33 297 175 281.33 175 262H172ZM228 230V233C244.016 233 257 245.984 257 262H260H263C263 242.67 247.33 227 228 227V230ZM196 262H199C199 245.984 211.984 233 228 233V230V227C208.67 227 193 242.67 193 262H196ZM228 294V291C211.984 291 199 278.016 199 262H196H193C193 281.33 208.67 297 228 297V294ZM260 262H257C257 278.016 244.016 291 228 291V294V297C247.33 297 263 281.33 263 262H260ZM316 230V233C332.016 233 345 245.984 345 262H348H351C351 242.67 335.33 227 316 227V230ZM284 262H287C287 245.984 299.984 233 316 233V230V227C296.67 227 281 242.67 281 262H284ZM316 294V291C299.984 291 287 278.016 287 262H284H281C281 281.33 296.67 297 316 297V294ZM348 262H345C345 278.016 332.016 291 316 291V294V297C335.33 297 351 281.33 351 262H348ZM404 230V233C420.016 233 433 245.984 433 262H436H439C439 242.67 423.33 227 404 227V230ZM372 262H375C375 245.984 387.984 233 404 233V230V227C384.67 227 369 242.67 369 262H372ZM404 294V291C387.984 291 375 278.016 375 262H372H369C369 281.33 384.67 297 404 297V294ZM436 262H433C433 278.016 420.016 291 404 291V294V297C423.33 297 439 281.33 439 262H436ZM492 230V233C508.016 233 521 245.984 521 262H524H527C527 242.67 511.33 227 492 227V230ZM460 262H463C463 245.984 475.984 233 492 233V230V227C472.67 227 457 242.67 457 262H460ZM492 294V291C475.984 291 463 278.016 463 262H460H457C457 281.33 472.67 297 492 297V294ZM524 262H521C521 278.016 508.016 291 492 291V294V297C511.33 297 527 281.33 527 262H524ZM580 230V233C596.016 233 609 245.984 609 262H612H615C615 242.67 599.33 227 580 227V230ZM548 262H551C551 245.984 563.984 233 580 233V230V227C560.67 227 545 242.67 545 262H548ZM580 294V291C563.984 291 551 278.016 551 262H548H545C545 281.33 560.67 297 580 297V294ZM612 262H609C609 278.016 596.016 291 580 291V294V297C599.33 297 615 281.33 615 262H612ZM52 142V145C68.0163 145 81 157.984 81 174H84H87C87 154.67 71.33 139 52 139V142ZM20 174H23C23 157.984 35.9837 145 52 145V142V139C32.67 139 17 154.67 17 174H20ZM52 206V203C35.9837 203 23 190.016 23 174H20H17C17 193.33 32.67 209 52 209V206ZM84 174H81C81 190.016 68.0163 203 52 203V206V209C71.33 209 87 193.33 87 174H84ZM140 142V145C156.016 145 169 157.984 169 174H172H175C175 154.67 159.33 139 140 139V142ZM108 174H111C111 157.984 123.984 145 140 145V142V139C120.67 139 105 154.67 105 174H108ZM140 206V203C123.984 203 111 190.016 111 174H108H105C105 193.33 120.67 209 140 209V206ZM172 174H169C169 190.016 156.016 203 140 203V206V209C159.33 209 175 193.33 175 174H172ZM228 142V145C244.016 145 257 157.984 257 174H260H263C263 154.67 247.33 139 228 139V142ZM196 174H199C199 157.984 211.984 145 228 145V142V139C208.67 139 193 154.67 193 174H196ZM228 206V203C211.984 203 199 190.016 199 174H196H193C193 193.33 208.67 209 228 209V206ZM260 174H257C257 190.016 244.016 203 228 203V206V209C247.33 209 263 193.33 263 174H260ZM316 142V145C332.016 145 345 157.984 345 174H348H351C351 154.67 335.33 139 316 139V142ZM284 174H287C287 157.984 299.984 145 316 145V142V139C296.67 139 281 154.67 281 174H284ZM316 206V203C299.984 203 287 190.016 287 174H284H281C281 193.33 296.67 209 316 209V206ZM348 174H345C345 190.016 332.016 203 316 203V206V209C335.33 209 351 193.33 351 174H348ZM404 142V145C420.016 145 433 157.984 433 174H436H439C439 154.67 423.33 139 404 139V142ZM372 174H375C375 157.984 387.984 145 404 145V142V139C384.67 139 369 154.67 369 174H372ZM404 206V203C387.984 203 375 190.016 375 174H372H369C369 193.33 384.67 209 404 209V206ZM436 174H433C433 190.016 420.016 203 404 203V206V209C423.33 209 439 193.33 439 174H436ZM492 142V145C508.016 145 521 157.984 521 174H524H527C527 154.67 511.33 139 492 139V142ZM460 174H463C463 157.984 475.984 145 492 145V142V139C472.67 139 457 154.67 457 174H460ZM492 206V203C475.984 203 463 190.016 463 174H460H457C457 193.33 472.67 209 492 209V206ZM524 174H521C521 190.016 508.016 203 492 203V206V209C511.33 209 527 193.33 527 174H524ZM580 142V145C596.016 145 609 157.984 609 174H612H615C615 154.67 599.33 139 580 139V142ZM548 174H551C551 157.984 563.984 145 580 145V142V139C560.67 139 545 154.67 545 174H548ZM580 206V203C563.984 203 551 190.016 551 174H548H545C545 193.33 560.67 209 580 209V206ZM612 174H609C609 190.016 596.016 203 580 203V206V209C599.33 209 615 193.33 615 174H612ZM52 54V57C68.0163 57 81 69.9837 81 86H84H87C87 66.67 71.33 51 52 51V54ZM20 86H23C23 69.9837 35.9837 57 52 57V54V51C32.67 51 17 66.67 17 86H20ZM52 118V115C35.9837 115 23 102.016 23 86H20H17C17 105.33 32.67 121 52 121V118ZM84 86H81C81 102.016 68.0163 115 52 115V118V121C71.33 121 87 105.33 87 86H84ZM140 54V57C156.016 57 169 69.9837 169 86H172H175C175 66.67 159.33 51 140 51V54ZM108 86H111C111 69.9837 123.984 57 140 57V54V51C120.67 51 105 66.67 105 86H108ZM140 118V115C123.984 115 111 102.016 111 86H108H105C105 105.33 120.67 121 140 121V118ZM172 86H169C169 102.016 156.016 115 140 115V118V121C159.33 121 175 105.33 175 86H172ZM228 54V57C244.016 57 257 69.9837 257 86H260H263C263 66.67 247.33 51 228 51V54ZM196 86H199C199 69.9837 211.984 57 228 57V54V51C208.67 51 193 66.67 193 86H196ZM228 118V115C211.984 115 199 102.016 199 86H196H193C193 105.33 208.67 121 228 121V118ZM260 86H257C257 102.016 244.016 115 228 115V118V121C247.33 121 263 105.33 263 86H260ZM316 54V57C332.016 57 345 69.9837 345 86H348H351C351 66.67 335.33 51 316 51V54ZM284 86H287C287 69.9837 299.984 57 316 57V54V51C296.67 51 281 66.67 281 86H284ZM316 118V115C299.984 115 287 102.016 287 86H284H281C281 105.33 296.67 121 316 121V118ZM348 86H345C345 102.016 332.016 115 316 115V118V121C335.33 121 351 105.33 351 86H348ZM404 54V57C420.016 57 433 69.9837 433 86H436H439C439 66.67 423.33 51 404 51V54ZM372 86H375C375 69.9837 387.984 57 404 57V54V51C384.67 51 369 66.67 369 86H372ZM404 118V115C387.984 115 375 102.016 375 86H372H369C369 105.33 384.67 121 404 121V118ZM436 86H433C433 102.016 420.016 115 404 115V118V121C423.33 121 439 105.33 439 86H436ZM492 54V57C508.016 57 521 69.9837 521 86H524H527C527 66.67 511.33 51 492 51V54ZM460 86H463C463 69.9837 475.984 57 492 57V54V51C472.67 51 457 66.67 457 86H460ZM492 118V115C475.984 115 463 102.016 463 86H460H457C457 105.33 472.67 121 492 121V118ZM524 86H521C521 102.016 508.016 115 492 115V118V121C511.33 121 527 105.33 527 86H524ZM580 54V57C596.016 57 609 69.9837 609 86H612H615C615 66.67 599.33 51 580 51V54ZM548 86H551C551 69.9837 563.984 57 580 57V54V51C560.67 51 545 66.67 545 86H548ZM580 118V115C563.984 115 551 102.016 551 86H548H545C545 105.33 560.67 121 580 121V118ZM612 86H609C609 102.016 596.016 115 580 115V118V121C599.33 121 615 105.33 615 86H612Z" fill="black" mask="url(#path-1-inside-1_4185_1462)"/>
</g>
<mask id="path-3-inside-2_4185_1462" fill="white">
<path fill-rule="evenodd" clip-rule="evenodd" d="M40 34C17.9086 34 0 51.9086 0 74V578C0 600.091 17.9086 618 40 618H592C614.091 618 632 600.091 632 578V74C632 51.9086 614.091 34 592 34H40ZM84 526C84 508.327 69.6731 494 52 494C34.3269 494 20 508.327 20 526C20 543.673 34.3269 558 52 558C69.6731 558 84 543.673 84 526ZM172 526C172 508.327 157.673 494 140 494C122.327 494 108 508.327 108 526C108 543.673 122.327 558 140 558C157.673 558 172 543.673 172 526ZM260 526C260 508.327 245.673 494 228 494C210.327 494 196 508.327 196 526C196 543.673 210.327 558 228 558C245.673 558 260 543.673 260 526ZM348 526C348 508.327 333.673 494 316 494C298.327 494 284 508.327 284 526C284 543.673 298.327 558 316 558C333.673 558 348 543.673 348 526ZM436 526C436 508.327 421.673 494 404 494C386.327 494 372 508.327 372 526C372 543.673 386.327 558 404 558C421.673 558 436 543.673 436 526ZM524 526C524 508.327 509.673 494 492 494C474.327 494 460 508.327 460 526C460 543.673 474.327 558 492 558C509.673 558 524 543.673 524 526ZM612 526C612 508.327 597.673 494 580 494C562.327 494 548 508.327 548 526C548 543.673 562.327 558 580 558C597.673 558 612 543.673 612 526ZM84 438C84 420.327 69.6731 406 52 406C34.3269 406 20 420.327 20 438C20 455.673 34.3269 470 52 470C69.6731 470 84 455.673 84 438ZM172 438C172 420.327 157.673 406 140 406C122.327 406 108 420.327 108 438C108 455.673 122.327 470 140 470C157.673 470 172 455.673 172 438ZM260 438C260 420.327 245.673 406 228 406C210.327 406 196 420.327 196 438C196 455.673 210.327 470 228 470C245.673 470 260 455.673 260 438ZM348 438C348 420.327 333.673 406 316 406C298.327 406 284 420.327 284 438C284 455.673 298.327 470 316 470C333.673 470 348 455.673 348 438ZM436 438C436 420.327 421.673 406 404 406C386.327 406 372 420.327 372 438C372 455.673 386.327 470 404 470C421.673 470 436 455.673 436 438ZM524 438C524 420.327 509.673 406 492 406C474.327 406 460 420.327 460 438C460 455.673 474.327 470 492 470C509.673 470 524 455.673 524 438ZM612 438C612 420.327 597.673 406 580 406C562.327 406 548 420.327 548 438C548 455.673 562.327 470 580 470C597.673 470 612 455.673 612 438ZM84 350C84 332.327 69.6731 318 52 318C34.3269 318 20 332.327 20 350C20 367.673 34.3269 382 52 382C69.6731 382 84 367.673 84 350ZM172 350C172 332.327 157.673 318 140 318C122.327 318 108 332.327 108 350C108 367.673 122.327 382 140 382C157.673 382 172 367.673 172 350ZM260 350C260 332.327 245.673 318 228 318C210.327 318 196 332.327 196 350C196 367.673 210.327 382 228 382C245.673 382 260 367.673 260 350ZM348 350C348 332.327 333.673 318 316 318C298.327 318 284 332.327 284 350C284 367.673 298.327 382 316 382C333.673 382 348 367.673 348 350ZM436 350C436 332.327 421.673 318 404 318C386.327 318 372 332.327 372 350C372 367.673 386.327 382 404 382C421.673 382 436 367.673 436 350ZM524 350C524 332.327 509.673 318 492 318C474.327 318 460 332.327 460 350C460 367.673 474.327 382 492 382C509.673 382 524 367.673 524 350ZM612 350C612 332.327 597.673 318 580 318C562.327 318 548 332.327 548 350C548 367.673 562.327 382 580 382C597.673 382 612 367.673 612 350ZM84 262C84 244.327 69.6731 230 52 230C34.3269 230 20 244.327 20 262C20 279.673 34.3269 294 52 294C69.6731 294 84 279.673 84 262ZM172 262C172 244.327 157.673 230 140 230C122.327 230 108 244.327 108 262C108 279.673 122.327 294 140 294C157.673 294 172 279.673 172 262ZM260 262C260 244.327 245.673 230 228 230C210.327 230 196 244.327 196 262C196 279.673 210.327 294 228 294C245.673 294 260 279.673 260 262ZM348 262C348 244.327 333.673 230 316 230C298.327 230 284 244.327 284 262C284 279.673 298.327 294 316 294C333.673 294 348 279.673 348 262ZM436 262C436 244.327 421.673 230 404 230C386.327 230 372 244.327 372 262C372 279.673 386.327 294 404 294C421.673 294 436 279.673 436 262ZM524 262C524 244.327 509.673 230 492 230C474.327 230 460 244.327 460 262C460 279.673 474.327 294 492 294C509.673 294 524 279.673 524 262ZM612 262C612 244.327 597.673 230 580 230C562.327 230 548 244.327 548 262C548 279.673 562.327 294 580 294C597.673 294 612 279.673 612 262ZM84 174C84 156.327 69.6731 142 52 142C34.3269 142 20 156.327 20 174C20 191.673 34.3269 206 52 206C69.6731 206 84 191.673 84 174ZM172 174C172 156.327 157.673 142 140 142C122.327 142 108 156.327 108 174C108 191.673 122.327 206 140 206C157.673 206 172 191.673 172 174ZM260 174C260 156.327 245.673 142 228 142C210.327 142 196 156.327 196 174C196 191.673 210.327 206 228 206C245.673 206 260 191.673 260 174ZM348 174C348 156.327 333.673 142 316 142C298.327 142 284 156.327 284 174C284 191.673 298.327 206 316 206C333.673 206 348 191.673 348 174ZM436 174C436 156.327 421.673 142 404 142C386.327 142 372 156.327 372 174C372 191.673 386.327 206 404 206C421.673 206 436 191.673 436 174ZM524 174C524 156.327 509.673 142 492 142C474.327 142 460 156.327 460 174C460 191.673 474.327 206 492 206C509.673 206 524 191.673 524 174ZM612 174C612 156.327 597.673 142 580 142C562.327 142 548 156.327 548 174C548 191.673 562.327 206 580 206C597.673 206 612 191.673 612 174ZM84 86C84 68.3269 69.6731 54 52 54C34.3269 54 20 68.3269 20 86C20 103.673 34.3269 118 52 118C69.6731 118 84 103.673 84 86ZM172 86C172 68.3269 157.673 54 140 54C122.327 54 108 68.3269 108 86C108 103.673 122.327 118 140 118C157.673 118 172 103.673 172 86ZM260 86C260 68.3269 245.673 54 228 54C210.327 54 196 68.3269 196 86C196 103.673 210.327 118 228 118C245.673 118 260 103.673 260 86ZM348 86C348 68.3269 333.673 54 316 54C298.327 54 284 68.3269 284 86C284 103.673 298.327 118 316 118C333.673 118 348 103.673 348 86ZM436 86C436 68.3269 421.673 54 404 54C386.327 54 372 68.3269 372 86C372 103.673 386.327 118 404 118C421.673 118 436 103.673 436 86ZM524 86C524 68.3269 509.673 54 492 54C474.327 54 460 68.3269 460 86C460 103.673 474.327 118 492 118C509.673 118 524 103.673 524 86ZM612 86C612 68.3269 597.673 54 580 54C562.327 54 548 68.3269 548 86C548 103.673 562.327 118 580 118C597.673 118 612 103.673 612 86Z"/>
</mask>
<path fill-rule="evenodd" clip-rule="evenodd" d="M40 34C17.9086 34 0 51.9086 0 74V578C0 600.091 17.9086 618 40 618H592C614.091 618 632 600.091 632 578V74C632 51.9086 614.091 34 592 34H40ZM84 526C84 508.327 69.6731 494 52 494C34.3269 494 20 508.327 20 526C20 543.673 34.3269 558 52 558C69.6731 558 84 543.673 84 526ZM172 526C172 508.327 157.673 494 140 494C122.327 494 108 508.327 108 526C108 543.673 122.327 558 140 558C157.673 558 172 543.673 172 526ZM260 526C260 508.327 245.673 494 228 494C210.327 494 196 508.327 196 526C196 543.673 210.327 558 228 558C245.673 558 260 543.673 260 526ZM348 526C348 508.327 333.673 494 316 494C298.327 494 284 508.327 284 526C284 543.673 298.327 558 316 558C333.673 558 348 543.673 348 526ZM436 526C436 508.327 421.673 494 404 494C386.327 494 372 508.327 372 526C372 543.673 386.327 558 404 558C421.673 558 436 543.673 436 526ZM524 526C524 508.327 509.673 494 492 494C474.327 494 460 508.327 460 526C460 543.673 474.327 558 492 558C509.673 558 524 543.673 524 526ZM612 526C612 508.327 597.673 494 580 494C562.327 494 548 508.327 548 526C548 543.673 562.327 558 580 558C597.673 558 612 543.673 612 526ZM84 438C84 420.327 69.6731 406 52 406C34.3269 406 20 420.327 20 438C20 455.673 34.3269 470 52 470C69.6731 470 84 455.673 84 438ZM172 438C172 420.327 157.673 406 140 406C122.327 406 108 420.327 108 438C108 455.673 122.327 470 140 470C157.673 470 172 455.673 172 438ZM260 438C260 420.327 245.673 406 228 406C210.327 406 196 420.327 196 438C196 455.673 210.327 470 228 470C245.673 470 260 455.673 260 438ZM348 438C348 420.327 333.673 406 316 406C298.327 406 284 420.327 284 438C284 455.673 298.327 470 316 470C333.673 470 348 455.673 348 438ZM436 438C436 420.327 421.673 406 404 406C386.327 406 372 420.327 372 438C372 455.673 386.327 470 404 470C421.673 470 436 455.673 436 438ZM524 438C524 420.327 509.673 406 492 406C474.327 406 460 420.327 460 438C460 455.673 474.327 470 492 470C509.673 470 524 455.673 524 438ZM612 438C612 420.327 597.673 406 580 406C562.327 406 548 420.327 548 438C548 455.673 562.327 470 580 470C597.673 470 612 455.673 612 438ZM84 350C84 332.327 69.6731 318 52 318C34.3269 318 20 332.327 20 350C20 367.673 34.3269 382 52 382C69.6731 382 84 367.673 84 350ZM172 350C172 332.327 157.673 318 140 318C122.327 318 108 332.327 108 350C108 367.673 122.327 382 140 382C157.673 382 172 367.673 172 350ZM260 350C260 332.327 245.673 318 228 318C210.327 318 196 332.327 196 350C196 367.673 210.327 382 228 382C245.673 382 260 367.673 260 350ZM348 350C348 332.327 333.673 318 316 318C298.327 318 284 332.327 284 350C284 367.673 298.327 382 316 382C333.673 382 348 367.673 348 350ZM436 350C436 332.327 421.673 318 404 318C386.327 318 372 332.327 372 350C372 367.673 386.327 382 404 382C421.673 382 436 367.673 436 350ZM524 350C524 332.327 509.673 318 492 318C474.327 318 460 332.327 460 350C460 367.673 474.327 382 492 382C509.673 382 524 367.673 524 350ZM612 350C612 332.327 597.673 318 580 318C562.327 318 548 332.327 548 350C548 367.673 562.327 382 580 382C597.673 382 612 367.673 612 350ZM84 262C84 244.327 69.6731 230 52 230C34.3269 230 20 244.327 20 262C20 279.673 34.3269 294 52 294C69.6731 294 84 279.673 84 262ZM172 262C172 244.327 157.673 230 140 230C122.327 230 108 244.327 108 262C108 279.673 122.327 294 140 294C157.673 294 172 279.673 172 262ZM260 262C260 244.327 245.673 230 228 230C210.327 230 196 244.327 196 262C196 279.673 210.327 294 228 294C245.673 294 260 279.673 260 262ZM348 262C348 244.327 333.673 230 316 230C298.327 230 284 244.327 284 262C284 279.673 298.327 294 316 294C333.673 294 348 279.673 348 262ZM436 262C436 244.327 421.673 230 404 230C386.327 230 372 244.327 372 262C372 279.673 386.327 294 404 294C421.673 294 436 279.673 436 262ZM524 262C524 244.327 509.673 230 492 230C474.327 230 460 244.327 460 262C460 279.673 474.327 294 492 294C509.673 294 524 279.673 524 262ZM612 262C612 244.327 597.673 230 580 230C562.327 230 548 244.327 548 262C548 279.673 562.327 294 580 294C597.673 294 612 279.673 612 262ZM84 174C84 156.327 69.6731 142 52 142C34.3269 142 20 156.327 20 174C20 191.673 34.3269 206 52 206C69.6731 206 84 191.673 84 174ZM172 174C172 156.327 157.673 142 140 142C122.327 142 108 156.327 108 174C108 191.673 122.327 206 140 206C157.673 206 172 191.673 172 174ZM260 174C260 156.327 245.673 142 228 142C210.327 142 196 156.327 196 174C196 191.673 210.327 206 228 206C245.673 206 260 191.673 260 174ZM348 174C348 156.327 333.673 142 316 142C298.327 142 284 156.327 284 174C284 191.673 298.327 206 316 206C333.673 206 348 191.673 348 174ZM436 174C436 156.327 421.673 142 404 142C386.327 142 372 156.327 372 174C372 191.673 386.327 206 404 206C421.673 206 436 191.673 436 174ZM524 174C524 156.327 509.673 142 492 142C474.327 142 460 156.327 460 174C460 191.673 474.327 206 492 206C509.673 206 524 191.673 524 174ZM612 174C612 156.327 597.673 142 580 142C562.327 142 548 156.327 548 174C548 191.673 562.327 206 580 206C597.673 206 612 191.673 612 174ZM84 86C84 68.3269 69.6731 54 52 54C34.3269 54 20 68.3269 20 86C20 103.673 34.3269 118 52 118C69.6731 118 84 103.673 84 86ZM172 86C172 68.3269 157.673 54 140 54C122.327 54 108 68.3269 108 86C108 103.673 122.327 118 140 118C157.673 118 172 103.673 172 86ZM260 86C260 68.3269 245.673 54 228 54C210.327 54 196 68.3269 196 86C196 103.673 210.327 118 228 118C245.673 118 260 103.673 260 86ZM348 86C348 68.3269 333.673 54 316 54C298.327 54 284 68.3269 284 86C284 103.673 298.327 118 316 118C333.673 118 348 103.673 348 86ZM436 86C436 68.3269 421.673 54 404 54C386.327 54 372 68.3269 372 86C372 103.673 386.327 118 404 118C421.673 118 436 103.673 436 86ZM524 86C524 68.3269 509.673 54 492 54C474.327 54 460 68.3269 460 86C460 103.673 474.327 118 492 118C509.673 118 524 103.673 524 86ZM612 86C612 68.3269 597.673 54 580 54C562.327 54 548 68.3269 548 86C548 103.673 562.327 118 580 118C597.673 118 612 103.673 612 86Z" fill="white"/>
<path d="M0 74H3C3 53.5655 19.5655 37 40 37V34V31C16.2518 31 -3 50.2517 -3 74H0ZM0 578H3V74H0H-3V578H0ZM40 618V615C19.5655 615 3 598.435 3 578H0H-3C-3 601.748 16.2517 621 40 621V618ZM592 618V615H40V618V621H592V618ZM632 578H629C629 598.435 612.435 615 592 615V618V621C615.748 621 635 601.748 635 578H632ZM632 74H629V578H632H635V74H632ZM592 34V37C612.435 37 629 53.5655 629 74H632H635C635 50.2518 615.748 31 592 31V34ZM40 34V37H592V34V31H40V34ZM52 494V497C68.0163 497 81 509.984 81 526H84H87C87 506.67 71.33 491 52 491V494ZM20 526H23C23 509.984 35.9837 497 52 497V494V491C32.67 491 17 506.67 17 526H20ZM52 558V555C35.9837 555 23 542.016 23 526H20H17C17 545.33 32.67 561 52 561V558ZM84 526H81C81 542.016 68.0163 555 52 555V558V561C71.33 561 87 545.33 87 526H84ZM140 494V497C156.016 497 169 509.984 169 526H172H175C175 506.67 159.33 491 140 491V494ZM108 526H111C111 509.984 123.984 497 140 497V494V491C120.67 491 105 506.67 105 526H108ZM140 558V555C123.984 555 111 542.016 111 526H108H105C105 545.33 120.67 561 140 561V558ZM172 526H169C169 542.016 156.016 555 140 555V558V561C159.33 561 175 545.33 175 526H172ZM228 494V497C244.016 497 257 509.984 257 526H260H263C263 506.67 247.33 491 228 491V494ZM196 526H199C199 509.984 211.984 497 228 497V494V491C208.67 491 193 506.67 193 526H196ZM228 558V555C211.984 555 199 542.016 199 526H196H193C193 545.33 208.67 561 228 561V558ZM260 526H257C257 542.016 244.016 555 228 555V558V561C247.33 561 263 545.33 263 526H260ZM316 494V497C332.016 497 345 509.984 345 526H348H351C351 506.67 335.33 491 316 491V494ZM284 526H287C287 509.984 299.984 497 316 497V494V491C296.67 491 281 506.67 281 526H284ZM316 558V555C299.984 555 287 542.016 287 526H284H281C281 545.33 296.67 561 316 561V558ZM348 526H345C345 542.016 332.016 555 316 555V558V561C335.33 561 351 545.33 351 526H348ZM404 494V497C420.016 497 433 509.984 433 526H436H439C439 506.67 423.33 491 404 491V494ZM372 526H375C375 509.984 387.984 497 404 497V494V491C384.67 491 369 506.67 369 526H372ZM404 558V555C387.984 555 375 542.016 375 526H372H369C369 545.33 384.67 561 404 561V558ZM436 526H433C433 542.016 420.016 555 404 555V558V561C423.33 561 439 545.33 439 526H436ZM492 494V497C508.016 497 521 509.984 521 526H524H527C527 506.67 511.33 491 492 491V494ZM460 526H463C463 509.984 475.984 497 492 497V494V491C472.67 491 457 506.67 457 526H460ZM492 558V555C475.984 555 463 542.016 463 526H460H457C457 545.33 472.67 561 492 561V558ZM524 526H521C521 542.016 508.016 555 492 555V558V561C511.33 561 527 545.33 527 526H524ZM580 494V497C596.016 497 609 509.984 609 526H612H615C615 506.67 599.33 491 580 491V494ZM548 526H551C551 509.984 563.984 497 580 497V494V491C560.67 491 545 506.67 545 526H548ZM580 558V555C563.984 555 551 542.016 551 526H548H545C545 545.33 560.67 561 580 561V558ZM612 526H609C609 542.016 596.016 555 580 555V558V561C599.33 561 615 545.33 615 526H612ZM52 406V409C68.0163 409 81 421.984 81 438H84H87C87 418.67 71.33 403 52 403V406ZM20 438H23C23 421.984 35.9837 409 52 409V406V403C32.67 403 17 418.67 17 438H20ZM52 470V467C35.9837 467 23 454.016 23 438H20H17C17 457.33 32.67 473 52 473V470ZM84 438H81C81 454.016 68.0163 467 52 467V470V473C71.33 473 87 457.33 87 438H84ZM140 406V409C156.016 409 169 421.984 169 438H172H175C175 418.67 159.33 403 140 403V406ZM108 438H111C111 421.984 123.984 409 140 409V406V403C120.67 403 105 418.67 105 438H108ZM140 470V467C123.984 467 111 454.016 111 438H108H105C105 457.33 120.67 473 140 473V470ZM172 438H169C169 454.016 156.016 467 140 467V470V473C159.33 473 175 457.33 175 438H172ZM228 406V409C244.016 409 257 421.984 257 438H260H263C263 418.67 247.33 403 228 403V406ZM196 438H199C199 421.984 211.984 409 228 409V406V403C208.67 403 193 418.67 193 438H196ZM228 470V467C211.984 467 199 454.016 199 438H196H193C193 457.33 208.67 473 228 473V470ZM260 438H257C257 454.016 244.016 467 228 467V470V473C247.33 473 263 457.33 263 438H260ZM316 406V409C332.016 409 345 421.984 345 438H348H351C351 418.67 335.33 403 316 403V406ZM284 438H287C287 421.984 299.984 409 316 409V406V403C296.67 403 281 418.67 281 438H284ZM316 470V467C299.984 467 287 454.016 287 438H284H281C281 457.33 296.67 473 316 473V470ZM348 438H345C345 454.016 332.016 467 316 467V470V473C335.33 473 351 457.33 351 438H348ZM404 406V409C420.016 409 433 421.984 433 438H436H439C439 418.67 423.33 403 404 403V406ZM372 438H375C375 421.984 387.984 409 404 409V406V403C384.67 403 369 418.67 369 438H372ZM404 470V467C387.984 467 375 454.016 375 438H372H369C369 457.33 384.67 473 404 473V470ZM436 438H433C433 454.016 420.016 467 404 467V470V473C423.33 473 439 457.33 439 438H436ZM492 406V409C508.016 409 521 421.984 521 438H524H527C527 418.67 511.33 403 492 403V406ZM460 438H463C463 421.984 475.984 409 492 409V406V403C472.67 403 457 418.67 457 438H460ZM492 470V467C475.984 467 463 454.016 463 438H460H457C457 457.33 472.67 473 492 473V470ZM524 438H521C521 454.016 508.016 467 492 467V470V473C511.33 473 527 457.33 527 438H524ZM580 406V409C596.016 409 609 421.984 609 438H612H615C615 418.67 599.33 403 580 403V406ZM548 438H551C551 421.984 563.984 409 580 409V406V403C560.67 403 545 418.67 545 438H548ZM580 470V467C563.984 467 551 454.016 551 438H548H545C545 457.33 560.67 473 580 473V470ZM612 438H609C609 454.016 596.016 467 580 467V470V473C599.33 473 615 457.33 615 438H612ZM52 318V321C68.0163 321 81 333.984 81 350H84H87C87 330.67 71.33 315 52 315V318ZM20 350H23C23 333.984 35.9837 321 52 321V318V315C32.67 315 17 330.67 17 350H20ZM52 382V379C35.9837 379 23 366.016 23 350H20H17C17 369.33 32.67 385 52 385V382ZM84 350H81C81 366.016 68.0163 379 52 379V382V385C71.33 385 87 369.33 87 350H84ZM140 318V321C156.016 321 169 333.984 169 350H172H175C175 330.67 159.33 315 140 315V318ZM108 350H111C111 333.984 123.984 321 140 321V318V315C120.67 315 105 330.67 105 350H108ZM140 382V379C123.984 379 111 366.016 111 350H108H105C105 369.33 120.67 385 140 385V382ZM172 350H169C169 366.016 156.016 379 140 379V382V385C159.33 385 175 369.33 175 350H172ZM228 318V321C244.016 321 257 333.984 257 350H260H263C263 330.67 247.33 315 228 315V318ZM196 350H199C199 333.984 211.984 321 228 321V318V315C208.67 315 193 330.67 193 350H196ZM228 382V379C211.984 379 199 366.016 199 350H196H193C193 369.33 208.67 385 228 385V382ZM260 350H257C257 366.016 244.016 379 228 379V382V385C247.33 385 263 369.33 263 350H260ZM316 318V321C332.016 321 345 333.984 345 350H348H351C351 330.67 335.33 315 316 315V318ZM284 350H287C287 333.984 299.984 321 316 321V318V315C296.67 315 281 330.67 281 350H284ZM316 382V379C299.984 379 287 366.016 287 350H284H281C281 369.33 296.67 385 316 385V382ZM348 350H345C345 366.016 332.016 379 316 379V382V385C335.33 385 351 369.33 351 350H348ZM404 318V321C420.016 321 433 333.984 433 350H436H439C439 330.67 423.33 315 404 315V318ZM372 350H375C375 333.984 387.984 321 404 321V318V315C384.67 315 369 330.67 369 350H372ZM404 382V379C387.984 379 375 366.016 375 350H372H369C369 369.33 384.67 385 404 385V382ZM436 350H433C433 366.016 420.016 379 404 379V382V385C423.33 385 439 369.33 439 350H436ZM492 318V321C508.016 321 521 333.984 521 350H524H527C527 330.67 511.33 315 492 315V318ZM460 350H463C463 333.984 475.984 321 492 321V318V315C472.67 315 457 330.67 457 350H460ZM492 382V379C475.984 379 463 366.016 463 350H460H457C457 369.33 472.67 385 492 385V382ZM524 350H521C521 366.016 508.016 379 492 379V382V385C511.33 385 527 369.33 527 350H524ZM580 318V321C596.016 321 609 333.984 609 350H612H615C615 330.67 599.33 315 580 315V318ZM548 350H551C551 333.984 563.984 321 580 321V318V315C560.67 315 545 330.67 545 350H548ZM580 382V379C563.984 379 551 366.016 551 350H548H545C545 369.33 560.67 385 580 385V382ZM612 350H609C609 366.016 596.016 379 580 379V382V385C599.33 385 615 369.33 615 350H612ZM52 230V233C68.0163 233 81 245.984 81 262H84H87C87 242.67 71.33 227 52 227V230ZM20 262H23C23 245.984 35.9837 233 52 233V230V227C32.67 227 17 242.67 17 262H20ZM52 294V291C35.9837 291 23 278.016 23 262H20H17C17 281.33 32.67 297 52 297V294ZM84 262H81C81 278.016 68.0163 291 52 291V294V297C71.33 297 87 281.33 87 262H84ZM140 230V233C156.016 233 169 245.984 169 262H172H175C175 242.67 159.33 227 140 227V230ZM108 262H111C111 245.984 123.984 233 140 233V230V227C120.67 227 105 242.67 105 262H108ZM140 294V291C123.984 291 111 278.016 111 262H108H105C105 281.33 120.67 297 140 297V294ZM172 262H169C169 278.016 156.016 291 140 291V294V297C159.33 297 175 281.33 175 262H172ZM228 230V233C244.016 233 257 245.984 257 262H260H263C263 242.67 247.33 227 228 227V230ZM196 262H199C199 245.984 211.984 233 228 233V230V227C208.67 227 193 242.67 193 262H196ZM228 294V291C211.984 291 199 278.016 199 262H196H193C193 281.33 208.67 297 228 297V294ZM260 262H257C257 278.016 244.016 291 228 291V294V297C247.33 297 263 281.33 263 262H260ZM316 230V233C332.016 233 345 245.984 345 262H348H351C351 242.67 335.33 227 316 227V230ZM284 262H287C287 245.984 299.984 233 316 233V230V227C296.67 227 281 242.67 281 262H284ZM316 294V291C299.984 291 287 278.016 287 262H284H281C281 281.33 296.67 297 316 297V294ZM348 262H345C345 278.016 332.016 291 316 291V294V297C335.33 297 351 281.33 351 262H348ZM404 230V233C420.016 233 433 245.984 433 262H436H439C439 242.67 423.33 227 404 227V230ZM372 262H375C375 245.984 387.984 233 404 233V230V227C384.67 227 369 242.67 369 262H372ZM404 294V291C387.984 291 375 278.016 375 262H372H369C369 281.33 384.67 297 404 297V294ZM436 262H433C433 278.016 420.016 291 404 291V294V297C423.33 297 439 281.33 439 262H436ZM492 230V233C508.016 233 521 245.984 521 262H524H527C527 242.67 511.33 227 492 227V230ZM460 262H463C463 245.984 475.984 233 492 233V230V227C472.67 227 457 242.67 457 262H460ZM492 294V291C475.984 291 463 278.016 463 262H460H457C457 281.33 472.67 297 492 297V294ZM524 262H521C521 278.016 508.016 291 492 291V294V297C511.33 297 527 281.33 527 262H524ZM580 230V233C596.016 233 609 245.984 609 262H612H615C615 242.67 599.33 227 580 227V230ZM548 262H551C551 245.984 563.984 233 580 233V230V227C560.67 227 545 242.67 545 262H548ZM580 294V291C563.984 291 551 278.016 551 262H548H545C545 281.33 560.67 297 580 297V294ZM612 262H609C609 278.016 596.016 291 580 291V294V297C599.33 297 615 281.33 615 262H612ZM52 142V145C68.0163 145 81 157.984 81 174H84H87C87 154.67 71.33 139 52 139V142ZM20 174H23C23 157.984 35.9837 145 52 145V142V139C32.67 139 17 154.67 17 174H20ZM52 206V203C35.9837 203 23 190.016 23 174H20H17C17 193.33 32.67 209 52 209V206ZM84 174H81C81 190.016 68.0163 203 52 203V206V209C71.33 209 87 193.33 87 174H84ZM140 142V145C156.016 145 169 157.984 169 174H172H175C175 154.67 159.33 139 140 139V142ZM108 174H111C111 157.984 123.984 145 140 145V142V139C120.67 139 105 154.67 105 174H108ZM140 206V203C123.984 203 111 190.016 111 174H108H105C105 193.33 120.67 209 140 209V206ZM172 174H169C169 190.016 156.016 203 140 203V206V209C159.33 209 175 193.33 175 174H172ZM228 142V145C244.016 145 257 157.984 257 174H260H263C263 154.67 247.33 139 228 139V142ZM196 174H199C199 157.984 211.984 145 228 145V142V139C208.67 139 193 154.67 193 174H196ZM228 206V203C211.984 203 199 190.016 199 174H196H193C193 193.33 208.67 209 228 209V206ZM260 174H257C257 190.016 244.016 203 228 203V206V209C247.33 209 263 193.33 263 174H260ZM316 142V145C332.016 145 345 157.984 345 174H348H351C351 154.67 335.33 139 316 139V142ZM284 174H287C287 157.984 299.984 145 316 145V142V139C296.67 139 281 154.67 281 174H284ZM316 206V203C299.984 203 287 190.016 287 174H284H281C281 193.33 296.67 209 316 209V206ZM348 174H345C345 190.016 332.016 203 316 203V206V209C335.33 209 351 193.33 351 174H348ZM404 142V145C420.016 145 433 157.984 433 174H436H439C439 154.67 423.33 139 404 139V142ZM372 174H375C375 157.984 387.984 145 404 145V142V139C384.67 139 369 154.67 369 174H372ZM404 206V203C387.984 203 375 190.016 375 174H372H369C369 193.33 384.67 209 404 209V206ZM436 174H433C433 190.016 420.016 203 404 203V206V209C423.33 209 439 193.33 439 174H436ZM492 142V145C508.016 145 521 157.984 521 174H524H527C527 154.67 511.33 139 492 139V142ZM460 174H463C463 157.984 475.984 145 492 145V142V139C472.67 139 457 154.67 457 174H460ZM492 206V203C475.984 203 463 190.016 463 174H460H457C457 193.33 472.67 209 492 209V206ZM524 174H521C521 190.016 508.016 203 492 203V206V209C511.33 209 527 193.33 527 174H524ZM580 142V145C596.016 145 609 157.984 609 174H612H615C615 154.67 599.33 139 580 139V142ZM548 174H551C551 157.984 563.984 145 580 145V142V139C560.67 139 545 154.67 545 174H548ZM580 206V203C563.984 203 551 190.016 551 174H548H545C545 193.33 560.67 209 580 209V206ZM612 174H609C609 190.016 596.016 203 580 203V206V209C599.33 209 615 193.33 615 174H612ZM52 54V57C68.0163 57 81 69.9837 81 86H84H87C87 66.67 71.33 51 52 51V54ZM20 86H23C23 69.9837 35.9837 57 52 57V54V51C32.67 51 17 66.67 17 86H20ZM52 118V115C35.9837 115 23 102.016 23 86H20H17C17 105.33 32.67 121 52 121V118ZM84 86H81C81 102.016 68.0163 115 52 115V118V121C71.33 121 87 105.33 87 86H84ZM140 54V57C156.016 57 169 69.9837 169 86H172H175C175 66.67 159.33 51 140 51V54ZM108 86H111C111 69.9837 123.984 57 140 57V54V51C120.67 51 105 66.67 105 86H108ZM140 118V115C123.984 115 111 102.016 111 86H108H105C105 105.33 120.67 121 140 121V118ZM172 86H169C169 102.016 156.016 115 140 115V118V121C159.33 121 175 105.33 175 86H172ZM228 54V57C244.016 57 257 69.9837 257 86H260H263C263 66.67 247.33 51 228 51V54ZM196 86H199C199 69.9837 211.984 57 228 57V54V51C208.67 51 193 66.67 193 86H196ZM228 118V115C211.984 115 199 102.016 199 86H196H193C193 105.33 208.67 121 228 121V118ZM260 86H257C257 102.016 244.016 115 228 115V118V121C247.33 121 263 105.33 263 86H260ZM316 54V57C332.016 57 345 69.9837 345 86H348H351C351 66.67 335.33 51 316 51V54ZM284 86H287C287 69.9837 299.984 57 316 57V54V51C296.67 51 281 66.67 281 86H284ZM316 118V115C299.984 115 287 102.016 287 86H284H281C281 105.33 296.67 121 316 121V118ZM348 86H345C345 102.016 332.016 115 316 115V118V121C335.33 121 351 105.33 351 86H348ZM404 54V57C420.016 57 433 69.9837 433 86H436H439C439 66.67 423.33 51 404 51V54ZM372 86H375C375 69.9837 387.984 57 404 57V54V51C384.67 51 369 66.67 369 86H372ZM404 118V115C387.984 115 375 102.016 375 86H372H369C369 105.33 384.67 121 404 121V118ZM436 86H433C433 102.016 420.016 115 404 115V118V121C423.33 121 439 105.33 439 86H436ZM492 54V57C508.016 57 521 69.9837 521 86H524H527C527 66.67 511.33 51 492 51V54ZM460 86H463C463 69.9837 475.984 57 492 57V54V51C472.67 51 457 66.67 457 86H460ZM492 118V115C475.984 115 463 102.016 463 86H460H457C457 105.33 472.67 121 492 121V118ZM524 86H521C521 102.016 508.016 115 492 115V118V121C511.33 121 527 105.33 527 86H524ZM580 54V57C596.016 57 609 69.9837 609 86H612H615C615 66.67 599.33 51 580 51V54ZM548 86H551C551 69.9837 563.984 57 580 57V54V51C560.67 51 545 66.67 545 86H548ZM580 118V115C563.984 115 551 102.016 551 86H548H545C545 105.33 560.67 121 580 121V118ZM612 86H609C609 102.016 596.016 115 580 115V118V121C599.33 121 615 105.33 615 86H612Z" fill="black" mask="url(#path-3-inside-2_4185_1462)"/>
<defs>
<filter id="filter0_d_4185_1462" x="0" y="34" width="632" height="594" filterUnits="userSpaceOnUse" color-interpolation-filters="sRGB">
<feFlood flood-opacity="0" result="BackgroundImageFix"/>
<feColorMatrix in="SourceAlpha" type="matrix" values="0 0 0 0 0 0 0 0 0 0 0 0 0 0 0 0 0 0 127 0" result="hardAlpha"/>
<feOffset dy="10"/>
<feColorMatrix type="matrix" values="0 0 0 0 0 0 0 0 0 0 0 0 0 0 0 0 0 0 1 0"/>
<feBlend mode="normal" in2="BackgroundImageFix" result="effect1_dropShadow_4185_1462"/>
<feBlend mode="normal" in="SourceGraphic" in2="effect1_dropShadow_4185_1462" result="shape"/>
</filter>
</defs>
</svg>
