<svg width="632" height="631" viewBox="0 0 632 631" fill="none" xmlns="http://www.w3.org/2000/svg">
<g filter="url(#filter0_d_4185_3713)">
<mask id="path-1-inside-1_4185_3713" fill="white">
<path fill-rule="evenodd" clip-rule="evenodd" d="M40 37C17.9086 37 0 54.9086 0 77V581C0 603.091 17.9086 621 40 621H592C614.091 621 632 603.091 632 581V77C632 54.9086 614.091 37 592 37H40ZM84 529C84 511.327 69.6731 497 52 497C34.3269 497 20 511.327 20 529C20 546.673 34.3269 561 52 561C69.6731 561 84 546.673 84 529ZM172 529C172 511.327 157.673 497 140 497C122.327 497 108 511.327 108 529C108 546.673 122.327 561 140 561C157.673 561 172 546.673 172 529ZM260 529C260 511.327 245.673 497 228 497C210.327 497 196 511.327 196 529C196 546.673 210.327 561 228 561C245.673 561 260 546.673 260 529ZM348 529C348 511.327 333.673 497 316 497C298.327 497 284 511.327 284 529C284 546.673 298.327 561 316 561C333.673 561 348 546.673 348 529ZM436 529C436 511.327 421.673 497 404 497C386.327 497 372 511.327 372 529C372 546.673 386.327 561 404 561C421.673 561 436 546.673 436 529ZM524 529C524 511.327 509.673 497 492 497C474.327 497 460 511.327 460 529C460 546.673 474.327 561 492 561C509.673 561 524 546.673 524 529ZM612 529C612 511.327 597.673 497 580 497C562.327 497 548 511.327 548 529C548 546.673 562.327 561 580 561C597.673 561 612 546.673 612 529ZM84 441C84 423.327 69.6731 409 52 409C34.3269 409 20 423.327 20 441C20 458.673 34.3269 473 52 473C69.6731 473 84 458.673 84 441ZM172 441C172 423.327 157.673 409 140 409C122.327 409 108 423.327 108 441C108 458.673 122.327 473 140 473C157.673 473 172 458.673 172 441ZM260 441C260 423.327 245.673 409 228 409C210.327 409 196 423.327 196 441C196 458.673 210.327 473 228 473C245.673 473 260 458.673 260 441ZM348 441C348 423.327 333.673 409 316 409C298.327 409 284 423.327 284 441C284 458.673 298.327 473 316 473C333.673 473 348 458.673 348 441ZM436 441C436 423.327 421.673 409 404 409C386.327 409 372 423.327 372 441C372 458.673 386.327 473 404 473C421.673 473 436 458.673 436 441ZM524 441C524 423.327 509.673 409 492 409C474.327 409 460 423.327 460 441C460 458.673 474.327 473 492 473C509.673 473 524 458.673 524 441ZM612 441C612 423.327 597.673 409 580 409C562.327 409 548 423.327 548 441C548 458.673 562.327 473 580 473C597.673 473 612 458.673 612 441ZM84 353C84 335.327 69.6731 321 52 321C34.3269 321 20 335.327 20 353C20 370.673 34.3269 385 52 385C69.6731 385 84 370.673 84 353ZM172 353C172 335.327 157.673 321 140 321C122.327 321 108 335.327 108 353C108 370.673 122.327 385 140 385C157.673 385 172 370.673 172 353ZM260 353C260 335.327 245.673 321 228 321C210.327 321 196 335.327 196 353C196 370.673 210.327 385 228 385C245.673 385 260 370.673 260 353ZM348 353C348 335.327 333.673 321 316 321C298.327 321 284 335.327 284 353C284 370.673 298.327 385 316 385C333.673 385 348 370.673 348 353ZM436 353C436 335.327 421.673 321 404 321C386.327 321 372 335.327 372 353C372 370.673 386.327 385 404 385C421.673 385 436 370.673 436 353ZM524 353C524 335.327 509.673 321 492 321C474.327 321 460 335.327 460 353C460 370.673 474.327 385 492 385C509.673 385 524 370.673 524 353ZM612 353C612 335.327 597.673 321 580 321C562.327 321 548 335.327 548 353C548 370.673 562.327 385 580 385C597.673 385 612 370.673 612 353ZM84 265C84 247.327 69.6731 233 52 233C34.3269 233 20 247.327 20 265C20 282.673 34.3269 297 52 297C69.6731 297 84 282.673 84 265ZM172 265C172 247.327 157.673 233 140 233C122.327 233 108 247.327 108 265C108 282.673 122.327 297 140 297C157.673 297 172 282.673 172 265ZM260 265C260 247.327 245.673 233 228 233C210.327 233 196 247.327 196 265C196 282.673 210.327 297 228 297C245.673 297 260 282.673 260 265ZM348 265C348 247.327 333.673 233 316 233C298.327 233 284 247.327 284 265C284 282.673 298.327 297 316 297C333.673 297 348 282.673 348 265ZM436 265C436 247.327 421.673 233 404 233C386.327 233 372 247.327 372 265C372 282.673 386.327 297 404 297C421.673 297 436 282.673 436 265ZM524 265C524 247.327 509.673 233 492 233C474.327 233 460 247.327 460 265C460 282.673 474.327 297 492 297C509.673 297 524 282.673 524 265ZM612 265C612 247.327 597.673 233 580 233C562.327 233 548 247.327 548 265C548 282.673 562.327 297 580 297C597.673 297 612 282.673 612 265ZM84 177C84 159.327 69.6731 145 52 145C34.3269 145 20 159.327 20 177C20 194.673 34.3269 209 52 209C69.6731 209 84 194.673 84 177ZM172 177C172 159.327 157.673 145 140 145C122.327 145 108 159.327 108 177C108 194.673 122.327 209 140 209C157.673 209 172 194.673 172 177ZM260 177C260 159.327 245.673 145 228 145C210.327 145 196 159.327 196 177C196 194.673 210.327 209 228 209C245.673 209 260 194.673 260 177ZM348 177C348 159.327 333.673 145 316 145C298.327 145 284 159.327 284 177C284 194.673 298.327 209 316 209C333.673 209 348 194.673 348 177ZM436 177C436 159.327 421.673 145 404 145C386.327 145 372 159.327 372 177C372 194.673 386.327 209 404 209C421.673 209 436 194.673 436 177ZM524 177C524 159.327 509.673 145 492 145C474.327 145 460 159.327 460 177C460 194.673 474.327 209 492 209C509.673 209 524 194.673 524 177ZM612 177C612 159.327 597.673 145 580 145C562.327 145 548 159.327 548 177C548 194.673 562.327 209 580 209C597.673 209 612 194.673 612 177ZM84 89C84 71.3269 69.6731 57 52 57C34.3269 57 20 71.3269 20 89C20 106.673 34.3269 121 52 121C69.6731 121 84 106.673 84 89ZM172 89C172 71.3269 157.673 57 140 57C122.327 57 108 71.3269 108 89C108 106.673 122.327 121 140 121C157.673 121 172 106.673 172 89ZM260 89C260 71.3269 245.673 57 228 57C210.327 57 196 71.3269 196 89C196 106.673 210.327 121 228 121C245.673 121 260 106.673 260 89ZM348 89C348 71.3269 333.673 57 316 57C298.327 57 284 71.3269 284 89C284 106.673 298.327 121 316 121C333.673 121 348 106.673 348 89ZM436 89C436 71.3269 421.673 57 404 57C386.327 57 372 71.3269 372 89C372 106.673 386.327 121 404 121C421.673 121 436 106.673 436 89ZM524 89C524 71.3269 509.673 57 492 57C474.327 57 460 71.3269 460 89C460 106.673 474.327 121 492 121C509.673 121 524 106.673 524 89ZM612 89C612 71.3269 597.673 57 580 57C562.327 57 548 71.3269 548 89C548 106.673 562.327 121 580 121C597.673 121 612 106.673 612 89Z"/>
</mask>
<path fill-rule="evenodd" clip-rule="evenodd" d="M40 37C17.9086 37 0 54.9086 0 77V581C0 603.091 17.9086 621 40 621H592C614.091 621 632 603.091 632 581V77C632 54.9086 614.091 37 592 37H40ZM84 529C84 511.327 69.6731 497 52 497C34.3269 497 20 511.327 20 529C20 546.673 34.3269 561 52 561C69.6731 561 84 546.673 84 529ZM172 529C172 511.327 157.673 497 140 497C122.327 497 108 511.327 108 529C108 546.673 122.327 561 140 561C157.673 561 172 546.673 172 529ZM260 529C260 511.327 245.673 497 228 497C210.327 497 196 511.327 196 529C196 546.673 210.327 561 228 561C245.673 561 260 546.673 260 529ZM348 529C348 511.327 333.673 497 316 497C298.327 497 284 511.327 284 529C284 546.673 298.327 561 316 561C333.673 561 348 546.673 348 529ZM436 529C436 511.327 421.673 497 404 497C386.327 497 372 511.327 372 529C372 546.673 386.327 561 404 561C421.673 561 436 546.673 436 529ZM524 529C524 511.327 509.673 497 492 497C474.327 497 460 511.327 460 529C460 546.673 474.327 561 492 561C509.673 561 524 546.673 524 529ZM612 529C612 511.327 597.673 497 580 497C562.327 497 548 511.327 548 529C548 546.673 562.327 561 580 561C597.673 561 612 546.673 612 529ZM84 441C84 423.327 69.6731 409 52 409C34.3269 409 20 423.327 20 441C20 458.673 34.3269 473 52 473C69.6731 473 84 458.673 84 441ZM172 441C172 423.327 157.673 409 140 409C122.327 409 108 423.327 108 441C108 458.673 122.327 473 140 473C157.673 473 172 458.673 172 441ZM260 441C260 423.327 245.673 409 228 409C210.327 409 196 423.327 196 441C196 458.673 210.327 473 228 473C245.673 473 260 458.673 260 441ZM348 441C348 423.327 333.673 409 316 409C298.327 409 284 423.327 284 441C284 458.673 298.327 473 316 473C333.673 473 348 458.673 348 441ZM436 441C436 423.327 421.673 409 404 409C386.327 409 372 423.327 372 441C372 458.673 386.327 473 404 473C421.673 473 436 458.673 436 441ZM524 441C524 423.327 509.673 409 492 409C474.327 409 460 423.327 460 441C460 458.673 474.327 473 492 473C509.673 473 524 458.673 524 441ZM612 441C612 423.327 597.673 409 580 409C562.327 409 548 423.327 548 441C548 458.673 562.327 473 580 473C597.673 473 612 458.673 612 441ZM84 353C84 335.327 69.6731 321 52 321C34.3269 321 20 335.327 20 353C20 370.673 34.3269 385 52 385C69.6731 385 84 370.673 84 353ZM172 353C172 335.327 157.673 321 140 321C122.327 321 108 335.327 108 353C108 370.673 122.327 385 140 385C157.673 385 172 370.673 172 353ZM260 353C260 335.327 245.673 321 228 321C210.327 321 196 335.327 196 353C196 370.673 210.327 385 228 385C245.673 385 260 370.673 260 353ZM348 353C348 335.327 333.673 321 316 321C298.327 321 284 335.327 284 353C284 370.673 298.327 385 316 385C333.673 385 348 370.673 348 353ZM436 353C436 335.327 421.673 321 404 321C386.327 321 372 335.327 372 353C372 370.673 386.327 385 404 385C421.673 385 436 370.673 436 353ZM524 353C524 335.327 509.673 321 492 321C474.327 321 460 335.327 460 353C460 370.673 474.327 385 492 385C509.673 385 524 370.673 524 353ZM612 353C612 335.327 597.673 321 580 321C562.327 321 548 335.327 548 353C548 370.673 562.327 385 580 385C597.673 385 612 370.673 612 353ZM84 265C84 247.327 69.6731 233 52 233C34.3269 233 20 247.327 20 265C20 282.673 34.3269 297 52 297C69.6731 297 84 282.673 84 265ZM172 265C172 247.327 157.673 233 140 233C122.327 233 108 247.327 108 265C108 282.673 122.327 297 140 297C157.673 297 172 282.673 172 265ZM260 265C260 247.327 245.673 233 228 233C210.327 233 196 247.327 196 265C196 282.673 210.327 297 228 297C245.673 297 260 282.673 260 265ZM348 265C348 247.327 333.673 233 316 233C298.327 233 284 247.327 284 265C284 282.673 298.327 297 316 297C333.673 297 348 282.673 348 265ZM436 265C436 247.327 421.673 233 404 233C386.327 233 372 247.327 372 265C372 282.673 386.327 297 404 297C421.673 297 436 282.673 436 265ZM524 265C524 247.327 509.673 233 492 233C474.327 233 460 247.327 460 265C460 282.673 474.327 297 492 297C509.673 297 524 282.673 524 265ZM612 265C612 247.327 597.673 233 580 233C562.327 233 548 247.327 548 265C548 282.673 562.327 297 580 297C597.673 297 612 282.673 612 265ZM84 177C84 159.327 69.6731 145 52 145C34.3269 145 20 159.327 20 177C20 194.673 34.3269 209 52 209C69.6731 209 84 194.673 84 177ZM172 177C172 159.327 157.673 145 140 145C122.327 145 108 159.327 108 177C108 194.673 122.327 209 140 209C157.673 209 172 194.673 172 177ZM260 177C260 159.327 245.673 145 228 145C210.327 145 196 159.327 196 177C196 194.673 210.327 209 228 209C245.673 209 260 194.673 260 177ZM348 177C348 159.327 333.673 145 316 145C298.327 145 284 159.327 284 177C284 194.673 298.327 209 316 209C333.673 209 348 194.673 348 177ZM436 177C436 159.327 421.673 145 404 145C386.327 145 372 159.327 372 177C372 194.673 386.327 209 404 209C421.673 209 436 194.673 436 177ZM524 177C524 159.327 509.673 145 492 145C474.327 145 460 159.327 460 177C460 194.673 474.327 209 492 209C509.673 209 524 194.673 524 177ZM612 177C612 159.327 597.673 145 580 145C562.327 145 548 159.327 548 177C548 194.673 562.327 209 580 209C597.673 209 612 194.673 612 177ZM84 89C84 71.3269 69.6731 57 52 57C34.3269 57 20 71.3269 20 89C20 106.673 34.3269 121 52 121C69.6731 121 84 106.673 84 89ZM172 89C172 71.3269 157.673 57 140 57C122.327 57 108 71.3269 108 89C108 106.673 122.327 121 140 121C157.673 121 172 106.673 172 89ZM260 89C260 71.3269 245.673 57 228 57C210.327 57 196 71.3269 196 89C196 106.673 210.327 121 228 121C245.673 121 260 106.673 260 89ZM348 89C348 71.3269 333.673 57 316 57C298.327 57 284 71.3269 284 89C284 106.673 298.327 121 316 121C333.673 121 348 106.673 348 89ZM436 89C436 71.3269 421.673 57 404 57C386.327 57 372 71.3269 372 89C372 106.673 386.327 121 404 121C421.673 121 436 106.673 436 89ZM524 89C524 71.3269 509.673 57 492 57C474.327 57 460 71.3269 460 89C460 106.673 474.327 121 492 121C509.673 121 524 106.673 524 89ZM612 89C612 71.3269 597.673 57 580 57C562.327 57 548 71.3269 548 89C548 106.673 562.327 121 580 121C597.673 121 612 106.673 612 89Z" fill="black"/>
<path d="M0 77H3C3 56.5655 19.5655 40 40 40V37V34C16.2518 34 -3 53.2517 -3 77H0ZM0 581H3V77H0H-3V581H0ZM40 621V618C19.5655 618 3 601.435 3 581H0H-3C-3 604.748 16.2517 624 40 624V621ZM592 621V618H40V621V624H592V621ZM632 581H629C629 601.435 612.435 618 592 618V621V624C615.748 624 635 604.748 635 581H632ZM632 77H629V581H632H635V77H632ZM592 37V40C612.435 40 629 56.5655 629 77H632H635C635 53.2518 615.748 34 592 34V37ZM40 37V40H592V37V34H40V37ZM52 497V500C68.0163 500 81 512.984 81 529H84H87C87 509.67 71.33 494 52 494V497ZM20 529H23C23 512.984 35.9837 500 52 500V497V494C32.67 494 17 509.67 17 529H20ZM52 561V558C35.9837 558 23 545.016 23 529H20H17C17 548.33 32.67 564 52 564V561ZM84 529H81C81 545.016 68.0163 558 52 558V561V564C71.33 564 87 548.33 87 529H84ZM140 497V500C156.016 500 169 512.984 169 529H172H175C175 509.67 159.33 494 140 494V497ZM108 529H111C111 512.984 123.984 500 140 500V497V494C120.67 494 105 509.67 105 529H108ZM140 561V558C123.984 558 111 545.016 111 529H108H105C105 548.33 120.67 564 140 564V561ZM172 529H169C169 545.016 156.016 558 140 558V561V564C159.33 564 175 548.33 175 529H172ZM228 497V500C244.016 500 257 512.984 257 529H260H263C263 509.67 247.33 494 228 494V497ZM196 529H199C199 512.984 211.984 500 228 500V497V494C208.67 494 193 509.67 193 529H196ZM228 561V558C211.984 558 199 545.016 199 529H196H193C193 548.33 208.67 564 228 564V561ZM260 529H257C257 545.016 244.016 558 228 558V561V564C247.33 564 263 548.33 263 529H260ZM316 497V500C332.016 500 345 512.984 345 529H348H351C351 509.67 335.33 494 316 494V497ZM284 529H287C287 512.984 299.984 500 316 500V497V494C296.67 494 281 509.67 281 529H284ZM316 561V558C299.984 558 287 545.016 287 529H284H281C281 548.33 296.67 564 316 564V561ZM348 529H345C345 545.016 332.016 558 316 558V561V564C335.33 564 351 548.33 351 529H348ZM404 497V500C420.016 500 433 512.984 433 529H436H439C439 509.67 423.33 494 404 494V497ZM372 529H375C375 512.984 387.984 500 404 500V497V494C384.67 494 369 509.67 369 529H372ZM404 561V558C387.984 558 375 545.016 375 529H372H369C369 548.33 384.67 564 404 564V561ZM436 529H433C433 545.016 420.016 558 404 558V561V564C423.33 564 439 548.33 439 529H436ZM492 497V500C508.016 500 521 512.984 521 529H524H527C527 509.67 511.33 494 492 494V497ZM460 529H463C463 512.984 475.984 500 492 500V497V494C472.67 494 457 509.67 457 529H460ZM492 561V558C475.984 558 463 545.016 463 529H460H457C457 548.33 472.67 564 492 564V561ZM524 529H521C521 545.016 508.016 558 492 558V561V564C511.33 564 527 548.33 527 529H524ZM580 497V500C596.016 500 609 512.984 609 529H612H615C615 509.67 599.33 494 580 494V497ZM548 529H551C551 512.984 563.984 500 580 500V497V494C560.67 494 545 509.67 545 529H548ZM580 561V558C563.984 558 551 545.016 551 529H548H545C545 548.33 560.67 564 580 564V561ZM612 529H609C609 545.016 596.016 558 580 558V561V564C599.33 564 615 548.33 615 529H612ZM52 409V412C68.0163 412 81 424.984 81 441H84H87C87 421.67 71.33 406 52 406V409ZM20 441H23C23 424.984 35.9837 412 52 412V409V406C32.67 406 17 421.67 17 441H20ZM52 473V470C35.9837 470 23 457.016 23 441H20H17C17 460.33 32.67 476 52 476V473ZM84 441H81C81 457.016 68.0163 470 52 470V473V476C71.33 476 87 460.33 87 441H84ZM140 409V412C156.016 412 169 424.984 169 441H172H175C175 421.67 159.33 406 140 406V409ZM108 441H111C111 424.984 123.984 412 140 412V409V406C120.67 406 105 421.67 105 441H108ZM140 473V470C123.984 470 111 457.016 111 441H108H105C105 460.33 120.67 476 140 476V473ZM172 441H169C169 457.016 156.016 470 140 470V473V476C159.33 476 175 460.33 175 441H172ZM228 409V412C244.016 412 257 424.984 257 441H260H263C263 421.67 247.33 406 228 406V409ZM196 441H199C199 424.984 211.984 412 228 412V409V406C208.67 406 193 421.67 193 441H196ZM228 473V470C211.984 470 199 457.016 199 441H196H193C193 460.33 208.67 476 228 476V473ZM260 441H257C257 457.016 244.016 470 228 470V473V476C247.33 476 263 460.33 263 441H260ZM316 409V412C332.016 412 345 424.984 345 441H348H351C351 421.67 335.33 406 316 406V409ZM284 441H287C287 424.984 299.984 412 316 412V409V406C296.67 406 281 421.67 281 441H284ZM316 473V470C299.984 470 287 457.016 287 441H284H281C281 460.33 296.67 476 316 476V473ZM348 441H345C345 457.016 332.016 470 316 470V473V476C335.33 476 351 460.33 351 441H348ZM404 409V412C420.016 412 433 424.984 433 441H436H439C439 421.67 423.33 406 404 406V409ZM372 441H375C375 424.984 387.984 412 404 412V409V406C384.67 406 369 421.67 369 441H372ZM404 473V470C387.984 470 375 457.016 375 441H372H369C369 460.33 384.67 476 404 476V473ZM436 441H433C433 457.016 420.016 470 404 470V473V476C423.33 476 439 460.33 439 441H436ZM492 409V412C508.016 412 521 424.984 521 441H524H527C527 421.67 511.33 406 492 406V409ZM460 441H463C463 424.984 475.984 412 492 412V409V406C472.67 406 457 421.67 457 441H460ZM492 473V470C475.984 470 463 457.016 463 441H460H457C457 460.33 472.67 476 492 476V473ZM524 441H521C521 457.016 508.016 470 492 470V473V476C511.33 476 527 460.33 527 441H524ZM580 409V412C596.016 412 609 424.984 609 441H612H615C615 421.67 599.33 406 580 406V409ZM548 441H551C551 424.984 563.984 412 580 412V409V406C560.67 406 545 421.67 545 441H548ZM580 473V470C563.984 470 551 457.016 551 441H548H545C545 460.33 560.67 476 580 476V473ZM612 441H609C609 457.016 596.016 470 580 470V473V476C599.33 476 615 460.33 615 441H612ZM52 321V324C68.0163 324 81 336.984 81 353H84H87C87 333.67 71.33 318 52 318V321ZM20 353H23C23 336.984 35.9837 324 52 324V321V318C32.67 318 17 333.67 17 353H20ZM52 385V382C35.9837 382 23 369.016 23 353H20H17C17 372.33 32.67 388 52 388V385ZM84 353H81C81 369.016 68.0163 382 52 382V385V388C71.33 388 87 372.33 87 353H84ZM140 321V324C156.016 324 169 336.984 169 353H172H175C175 333.67 159.33 318 140 318V321ZM108 353H111C111 336.984 123.984 324 140 324V321V318C120.67 318 105 333.67 105 353H108ZM140 385V382C123.984 382 111 369.016 111 353H108H105C105 372.33 120.67 388 140 388V385ZM172 353H169C169 369.016 156.016 382 140 382V385V388C159.33 388 175 372.33 175 353H172ZM228 321V324C244.016 324 257 336.984 257 353H260H263C263 333.67 247.33 318 228 318V321ZM196 353H199C199 336.984 211.984 324 228 324V321V318C208.67 318 193 333.67 193 353H196ZM228 385V382C211.984 382 199 369.016 199 353H196H193C193 372.33 208.67 388 228 388V385ZM260 353H257C257 369.016 244.016 382 228 382V385V388C247.33 388 263 372.33 263 353H260ZM316 321V324C332.016 324 345 336.984 345 353H348H351C351 333.67 335.33 318 316 318V321ZM284 353H287C287 336.984 299.984 324 316 324V321V318C296.67 318 281 333.67 281 353H284ZM316 385V382C299.984 382 287 369.016 287 353H284H281C281 372.33 296.67 388 316 388V385ZM348 353H345C345 369.016 332.016 382 316 382V385V388C335.33 388 351 372.33 351 353H348ZM404 321V324C420.016 324 433 336.984 433 353H436H439C439 333.67 423.33 318 404 318V321ZM372 353H375C375 336.984 387.984 324 404 324V321V318C384.67 318 369 333.67 369 353H372ZM404 385V382C387.984 382 375 369.016 375 353H372H369C369 372.33 384.67 388 404 388V385ZM436 353H433C433 369.016 420.016 382 404 382V385V388C423.33 388 439 372.33 439 353H436ZM492 321V324C508.016 324 521 336.984 521 353H524H527C527 333.67 511.33 318 492 318V321ZM460 353H463C463 336.984 475.984 324 492 324V321V318C472.67 318 457 333.67 457 353H460ZM492 385V382C475.984 382 463 369.016 463 353H460H457C457 372.33 472.67 388 492 388V385ZM524 353H521C521 369.016 508.016 382 492 382V385V388C511.33 388 527 372.33 527 353H524ZM580 321V324C596.016 324 609 336.984 609 353H612H615C615 333.67 599.33 318 580 318V321ZM548 353H551C551 336.984 563.984 324 580 324V321V318C560.67 318 545 333.67 545 353H548ZM580 385V382C563.984 382 551 369.016 551 353H548H545C545 372.33 560.67 388 580 388V385ZM612 353H609C609 369.016 596.016 382 580 382V385V388C599.33 388 615 372.33 615 353H612ZM52 233V236C68.0163 236 81 248.984 81 265H84H87C87 245.67 71.33 230 52 230V233ZM20 265H23C23 248.984 35.9837 236 52 236V233V230C32.67 230 17 245.67 17 265H20ZM52 297V294C35.9837 294 23 281.016 23 265H20H17C17 284.33 32.67 300 52 300V297ZM84 265H81C81 281.016 68.0163 294 52 294V297V300C71.33 300 87 284.33 87 265H84ZM140 233V236C156.016 236 169 248.984 169 265H172H175C175 245.67 159.33 230 140 230V233ZM108 265H111C111 248.984 123.984 236 140 236V233V230C120.67 230 105 245.67 105 265H108ZM140 297V294C123.984 294 111 281.016 111 265H108H105C105 284.33 120.67 300 140 300V297ZM172 265H169C169 281.016 156.016 294 140 294V297V300C159.33 300 175 284.33 175 265H172ZM228 233V236C244.016 236 257 248.984 257 265H260H263C263 245.67 247.33 230 228 230V233ZM196 265H199C199 248.984 211.984 236 228 236V233V230C208.67 230 193 245.67 193 265H196ZM228 297V294C211.984 294 199 281.016 199 265H196H193C193 284.33 208.67 300 228 300V297ZM260 265H257C257 281.016 244.016 294 228 294V297V300C247.33 300 263 284.33 263 265H260ZM316 233V236C332.016 236 345 248.984 345 265H348H351C351 245.67 335.33 230 316 230V233ZM284 265H287C287 248.984 299.984 236 316 236V233V230C296.67 230 281 245.67 281 265H284ZM316 297V294C299.984 294 287 281.016 287 265H284H281C281 284.33 296.67 300 316 300V297ZM348 265H345C345 281.016 332.016 294 316 294V297V300C335.33 300 351 284.33 351 265H348ZM404 233V236C420.016 236 433 248.984 433 265H436H439C439 245.67 423.33 230 404 230V233ZM372 265H375C375 248.984 387.984 236 404 236V233V230C384.67 230 369 245.67 369 265H372ZM404 297V294C387.984 294 375 281.016 375 265H372H369C369 284.33 384.67 300 404 300V297ZM436 265H433C433 281.016 420.016 294 404 294V297V300C423.33 300 439 284.33 439 265H436ZM492 233V236C508.016 236 521 248.984 521 265H524H527C527 245.67 511.33 230 492 230V233ZM460 265H463C463 248.984 475.984 236 492 236V233V230C472.67 230 457 245.67 457 265H460ZM492 297V294C475.984 294 463 281.016 463 265H460H457C457 284.33 472.67 300 492 300V297ZM524 265H521C521 281.016 508.016 294 492 294V297V300C511.33 300 527 284.33 527 265H524ZM580 233V236C596.016 236 609 248.984 609 265H612H615C615 245.67 599.33 230 580 230V233ZM548 265H551C551 248.984 563.984 236 580 236V233V230C560.67 230 545 245.67 545 265H548ZM580 297V294C563.984 294 551 281.016 551 265H548H545C545 284.33 560.67 300 580 300V297ZM612 265H609C609 281.016 596.016 294 580 294V297V300C599.33 300 615 284.33 615 265H612ZM52 145V148C68.0163 148 81 160.984 81 177H84H87C87 157.67 71.33 142 52 142V145ZM20 177H23C23 160.984 35.9837 148 52 148V145V142C32.67 142 17 157.67 17 177H20ZM52 209V206C35.9837 206 23 193.016 23 177H20H17C17 196.33 32.67 212 52 212V209ZM84 177H81C81 193.016 68.0163 206 52 206V209V212C71.33 212 87 196.33 87 177H84ZM140 145V148C156.016 148 169 160.984 169 177H172H175C175 157.67 159.33 142 140 142V145ZM108 177H111C111 160.984 123.984 148 140 148V145V142C120.67 142 105 157.67 105 177H108ZM140 209V206C123.984 206 111 193.016 111 177H108H105C105 196.33 120.67 212 140 212V209ZM172 177H169C169 193.016 156.016 206 140 206V209V212C159.33 212 175 196.33 175 177H172ZM228 145V148C244.016 148 257 160.984 257 177H260H263C263 157.67 247.33 142 228 142V145ZM196 177H199C199 160.984 211.984 148 228 148V145V142C208.67 142 193 157.67 193 177H196ZM228 209V206C211.984 206 199 193.016 199 177H196H193C193 196.33 208.67 212 228 212V209ZM260 177H257C257 193.016 244.016 206 228 206V209V212C247.33 212 263 196.33 263 177H260ZM316 145V148C332.016 148 345 160.984 345 177H348H351C351 157.67 335.33 142 316 142V145ZM284 177H287C287 160.984 299.984 148 316 148V145V142C296.67 142 281 157.67 281 177H284ZM316 209V206C299.984 206 287 193.016 287 177H284H281C281 196.33 296.67 212 316 212V209ZM348 177H345C345 193.016 332.016 206 316 206V209V212C335.33 212 351 196.33 351 177H348ZM404 145V148C420.016 148 433 160.984 433 177H436H439C439 157.67 423.33 142 404 142V145ZM372 177H375C375 160.984 387.984 148 404 148V145V142C384.67 142 369 157.67 369 177H372ZM404 209V206C387.984 206 375 193.016 375 177H372H369C369 196.33 384.67 212 404 212V209ZM436 177H433C433 193.016 420.016 206 404 206V209V212C423.33 212 439 196.33 439 177H436ZM492 145V148C508.016 148 521 160.984 521 177H524H527C527 157.67 511.33 142 492 142V145ZM460 177H463C463 160.984 475.984 148 492 148V145V142C472.67 142 457 157.67 457 177H460ZM492 209V206C475.984 206 463 193.016 463 177H460H457C457 196.33 472.67 212 492 212V209ZM524 177H521C521 193.016 508.016 206 492 206V209V212C511.33 212 527 196.33 527 177H524ZM580 145V148C596.016 148 609 160.984 609 177H612H615C615 157.67 599.33 142 580 142V145ZM548 177H551C551 160.984 563.984 148 580 148V145V142C560.67 142 545 157.67 545 177H548ZM580 209V206C563.984 206 551 193.016 551 177H548H545C545 196.33 560.67 212 580 212V209ZM612 177H609C609 193.016 596.016 206 580 206V209V212C599.33 212 615 196.33 615 177H612ZM52 57V60C68.0163 60 81 72.9837 81 89H84H87C87 69.67 71.33 54 52 54V57ZM20 89H23C23 72.9837 35.9837 60 52 60V57V54C32.67 54 17 69.67 17 89H20ZM52 121V118C35.9837 118 23 105.016 23 89H20H17C17 108.33 32.67 124 52 124V121ZM84 89H81C81 105.016 68.0163 118 52 118V121V124C71.33 124 87 108.33 87 89H84ZM140 57V60C156.016 60 169 72.9837 169 89H172H175C175 69.67 159.33 54 140 54V57ZM108 89H111C111 72.9837 123.984 60 140 60V57V54C120.67 54 105 69.67 105 89H108ZM140 121V118C123.984 118 111 105.016 111 89H108H105C105 108.33 120.67 124 140 124V121ZM172 89H169C169 105.016 156.016 118 140 118V121V124C159.33 124 175 108.33 175 89H172ZM228 57V60C244.016 60 257 72.9837 257 89H260H263C263 69.67 247.33 54 228 54V57ZM196 89H199C199 72.9837 211.984 60 228 60V57V54C208.67 54 193 69.67 193 89H196ZM228 121V118C211.984 118 199 105.016 199 89H196H193C193 108.33 208.67 124 228 124V121ZM260 89H257C257 105.016 244.016 118 228 118V121V124C247.33 124 263 108.33 263 89H260ZM316 57V60C332.016 60 345 72.9837 345 89H348H351C351 69.67 335.33 54 316 54V57ZM284 89H287C287 72.9837 299.984 60 316 60V57V54C296.67 54 281 69.67 281 89H284ZM316 121V118C299.984 118 287 105.016 287 89H284H281C281 108.33 296.67 124 316 124V121ZM348 89H345C345 105.016 332.016 118 316 118V121V124C335.33 124 351 108.33 351 89H348ZM404 57V60C420.016 60 433 72.9837 433 89H436H439C439 69.67 423.33 54 404 54V57ZM372 89H375C375 72.9837 387.984 60 404 60V57V54C384.67 54 369 69.67 369 89H372ZM404 121V118C387.984 118 375 105.016 375 89H372H369C369 108.33 384.67 124 404 124V121ZM436 89H433C433 105.016 420.016 118 404 118V121V124C423.33 124 439 108.33 439 89H436ZM492 57V60C508.016 60 521 72.9837 521 89H524H527C527 69.67 511.33 54 492 54V57ZM460 89H463C463 72.9837 475.984 60 492 60V57V54C472.67 54 457 69.67 457 89H460ZM492 121V118C475.984 118 463 105.016 463 89H460H457C457 108.33 472.67 124 492 124V121ZM524 89H521C521 105.016 508.016 118 492 118V121V124C511.33 124 527 108.33 527 89H524ZM580 57V60C596.016 60 609 72.9837 609 89H612H615C615 69.67 599.33 54 580 54V57ZM548 89H551C551 72.9837 563.984 60 580 60V57V54C560.67 54 545 69.67 545 89H548ZM580 121V118C563.984 118 551 105.016 551 89H548H545C545 108.33 560.67 124 580 124V121ZM612 89H609C609 105.016 596.016 118 580 118V121V124C599.33 124 615 108.33 615 89H612Z" fill="black" mask="url(#path-1-inside-1_4185_3713)"/>
</g>
<mask id="path-3-inside-2_4185_3713" fill="white">
<path fill-rule="evenodd" clip-rule="evenodd" d="M40 37C17.9086 37 0 54.9086 0 77V581C0 603.091 17.9086 621 40 621H592C614.091 621 632 603.091 632 581V77C632 54.9086 614.091 37 592 37H40ZM84 529C84 511.327 69.6731 497 52 497C34.3269 497 20 511.327 20 529C20 546.673 34.3269 561 52 561C69.6731 561 84 546.673 84 529ZM172 529C172 511.327 157.673 497 140 497C122.327 497 108 511.327 108 529C108 546.673 122.327 561 140 561C157.673 561 172 546.673 172 529ZM260 529C260 511.327 245.673 497 228 497C210.327 497 196 511.327 196 529C196 546.673 210.327 561 228 561C245.673 561 260 546.673 260 529ZM348 529C348 511.327 333.673 497 316 497C298.327 497 284 511.327 284 529C284 546.673 298.327 561 316 561C333.673 561 348 546.673 348 529ZM436 529C436 511.327 421.673 497 404 497C386.327 497 372 511.327 372 529C372 546.673 386.327 561 404 561C421.673 561 436 546.673 436 529ZM524 529C524 511.327 509.673 497 492 497C474.327 497 460 511.327 460 529C460 546.673 474.327 561 492 561C509.673 561 524 546.673 524 529ZM612 529C612 511.327 597.673 497 580 497C562.327 497 548 511.327 548 529C548 546.673 562.327 561 580 561C597.673 561 612 546.673 612 529ZM84 441C84 423.327 69.6731 409 52 409C34.3269 409 20 423.327 20 441C20 458.673 34.3269 473 52 473C69.6731 473 84 458.673 84 441ZM172 441C172 423.327 157.673 409 140 409C122.327 409 108 423.327 108 441C108 458.673 122.327 473 140 473C157.673 473 172 458.673 172 441ZM260 441C260 423.327 245.673 409 228 409C210.327 409 196 423.327 196 441C196 458.673 210.327 473 228 473C245.673 473 260 458.673 260 441ZM348 441C348 423.327 333.673 409 316 409C298.327 409 284 423.327 284 441C284 458.673 298.327 473 316 473C333.673 473 348 458.673 348 441ZM436 441C436 423.327 421.673 409 404 409C386.327 409 372 423.327 372 441C372 458.673 386.327 473 404 473C421.673 473 436 458.673 436 441ZM524 441C524 423.327 509.673 409 492 409C474.327 409 460 423.327 460 441C460 458.673 474.327 473 492 473C509.673 473 524 458.673 524 441ZM612 441C612 423.327 597.673 409 580 409C562.327 409 548 423.327 548 441C548 458.673 562.327 473 580 473C597.673 473 612 458.673 612 441ZM84 353C84 335.327 69.6731 321 52 321C34.3269 321 20 335.327 20 353C20 370.673 34.3269 385 52 385C69.6731 385 84 370.673 84 353ZM172 353C172 335.327 157.673 321 140 321C122.327 321 108 335.327 108 353C108 370.673 122.327 385 140 385C157.673 385 172 370.673 172 353ZM260 353C260 335.327 245.673 321 228 321C210.327 321 196 335.327 196 353C196 370.673 210.327 385 228 385C245.673 385 260 370.673 260 353ZM348 353C348 335.327 333.673 321 316 321C298.327 321 284 335.327 284 353C284 370.673 298.327 385 316 385C333.673 385 348 370.673 348 353ZM436 353C436 335.327 421.673 321 404 321C386.327 321 372 335.327 372 353C372 370.673 386.327 385 404 385C421.673 385 436 370.673 436 353ZM524 353C524 335.327 509.673 321 492 321C474.327 321 460 335.327 460 353C460 370.673 474.327 385 492 385C509.673 385 524 370.673 524 353ZM612 353C612 335.327 597.673 321 580 321C562.327 321 548 335.327 548 353C548 370.673 562.327 385 580 385C597.673 385 612 370.673 612 353ZM84 265C84 247.327 69.6731 233 52 233C34.3269 233 20 247.327 20 265C20 282.673 34.3269 297 52 297C69.6731 297 84 282.673 84 265ZM172 265C172 247.327 157.673 233 140 233C122.327 233 108 247.327 108 265C108 282.673 122.327 297 140 297C157.673 297 172 282.673 172 265ZM260 265C260 247.327 245.673 233 228 233C210.327 233 196 247.327 196 265C196 282.673 210.327 297 228 297C245.673 297 260 282.673 260 265ZM348 265C348 247.327 333.673 233 316 233C298.327 233 284 247.327 284 265C284 282.673 298.327 297 316 297C333.673 297 348 282.673 348 265ZM436 265C436 247.327 421.673 233 404 233C386.327 233 372 247.327 372 265C372 282.673 386.327 297 404 297C421.673 297 436 282.673 436 265ZM524 265C524 247.327 509.673 233 492 233C474.327 233 460 247.327 460 265C460 282.673 474.327 297 492 297C509.673 297 524 282.673 524 265ZM612 265C612 247.327 597.673 233 580 233C562.327 233 548 247.327 548 265C548 282.673 562.327 297 580 297C597.673 297 612 282.673 612 265ZM84 177C84 159.327 69.6731 145 52 145C34.3269 145 20 159.327 20 177C20 194.673 34.3269 209 52 209C69.6731 209 84 194.673 84 177ZM172 177C172 159.327 157.673 145 140 145C122.327 145 108 159.327 108 177C108 194.673 122.327 209 140 209C157.673 209 172 194.673 172 177ZM260 177C260 159.327 245.673 145 228 145C210.327 145 196 159.327 196 177C196 194.673 210.327 209 228 209C245.673 209 260 194.673 260 177ZM348 177C348 159.327 333.673 145 316 145C298.327 145 284 159.327 284 177C284 194.673 298.327 209 316 209C333.673 209 348 194.673 348 177ZM436 177C436 159.327 421.673 145 404 145C386.327 145 372 159.327 372 177C372 194.673 386.327 209 404 209C421.673 209 436 194.673 436 177ZM524 177C524 159.327 509.673 145 492 145C474.327 145 460 159.327 460 177C460 194.673 474.327 209 492 209C509.673 209 524 194.673 524 177ZM612 177C612 159.327 597.673 145 580 145C562.327 145 548 159.327 548 177C548 194.673 562.327 209 580 209C597.673 209 612 194.673 612 177ZM84 89C84 71.3269 69.6731 57 52 57C34.3269 57 20 71.3269 20 89C20 106.673 34.3269 121 52 121C69.6731 121 84 106.673 84 89ZM172 89C172 71.3269 157.673 57 140 57C122.327 57 108 71.3269 108 89C108 106.673 122.327 121 140 121C157.673 121 172 106.673 172 89ZM260 89C260 71.3269 245.673 57 228 57C210.327 57 196 71.3269 196 89C196 106.673 210.327 121 228 121C245.673 121 260 106.673 260 89ZM348 89C348 71.3269 333.673 57 316 57C298.327 57 284 71.3269 284 89C284 106.673 298.327 121 316 121C333.673 121 348 106.673 348 89ZM436 89C436 71.3269 421.673 57 404 57C386.327 57 372 71.3269 372 89C372 106.673 386.327 121 404 121C421.673 121 436 106.673 436 89ZM524 89C524 71.3269 509.673 57 492 57C474.327 57 460 71.3269 460 89C460 106.673 474.327 121 492 121C509.673 121 524 106.673 524 89ZM612 89C612 71.3269 597.673 57 580 57C562.327 57 548 71.3269 548 89C548 106.673 562.327 121 580 121C597.673 121 612 106.673 612 89Z"/>
</mask>
<path fill-rule="evenodd" clip-rule="evenodd" d="M40 37C17.9086 37 0 54.9086 0 77V581C0 603.091 17.9086 621 40 621H592C614.091 621 632 603.091 632 581V77C632 54.9086 614.091 37 592 37H40ZM84 529C84 511.327 69.6731 497 52 497C34.3269 497 20 511.327 20 529C20 546.673 34.3269 561 52 561C69.6731 561 84 546.673 84 529ZM172 529C172 511.327 157.673 497 140 497C122.327 497 108 511.327 108 529C108 546.673 122.327 561 140 561C157.673 561 172 546.673 172 529ZM260 529C260 511.327 245.673 497 228 497C210.327 497 196 511.327 196 529C196 546.673 210.327 561 228 561C245.673 561 260 546.673 260 529ZM348 529C348 511.327 333.673 497 316 497C298.327 497 284 511.327 284 529C284 546.673 298.327 561 316 561C333.673 561 348 546.673 348 529ZM436 529C436 511.327 421.673 497 404 497C386.327 497 372 511.327 372 529C372 546.673 386.327 561 404 561C421.673 561 436 546.673 436 529ZM524 529C524 511.327 509.673 497 492 497C474.327 497 460 511.327 460 529C460 546.673 474.327 561 492 561C509.673 561 524 546.673 524 529ZM612 529C612 511.327 597.673 497 580 497C562.327 497 548 511.327 548 529C548 546.673 562.327 561 580 561C597.673 561 612 546.673 612 529ZM84 441C84 423.327 69.6731 409 52 409C34.3269 409 20 423.327 20 441C20 458.673 34.3269 473 52 473C69.6731 473 84 458.673 84 441ZM172 441C172 423.327 157.673 409 140 409C122.327 409 108 423.327 108 441C108 458.673 122.327 473 140 473C157.673 473 172 458.673 172 441ZM260 441C260 423.327 245.673 409 228 409C210.327 409 196 423.327 196 441C196 458.673 210.327 473 228 473C245.673 473 260 458.673 260 441ZM348 441C348 423.327 333.673 409 316 409C298.327 409 284 423.327 284 441C284 458.673 298.327 473 316 473C333.673 473 348 458.673 348 441ZM436 441C436 423.327 421.673 409 404 409C386.327 409 372 423.327 372 441C372 458.673 386.327 473 404 473C421.673 473 436 458.673 436 441ZM524 441C524 423.327 509.673 409 492 409C474.327 409 460 423.327 460 441C460 458.673 474.327 473 492 473C509.673 473 524 458.673 524 441ZM612 441C612 423.327 597.673 409 580 409C562.327 409 548 423.327 548 441C548 458.673 562.327 473 580 473C597.673 473 612 458.673 612 441ZM84 353C84 335.327 69.6731 321 52 321C34.3269 321 20 335.327 20 353C20 370.673 34.3269 385 52 385C69.6731 385 84 370.673 84 353ZM172 353C172 335.327 157.673 321 140 321C122.327 321 108 335.327 108 353C108 370.673 122.327 385 140 385C157.673 385 172 370.673 172 353ZM260 353C260 335.327 245.673 321 228 321C210.327 321 196 335.327 196 353C196 370.673 210.327 385 228 385C245.673 385 260 370.673 260 353ZM348 353C348 335.327 333.673 321 316 321C298.327 321 284 335.327 284 353C284 370.673 298.327 385 316 385C333.673 385 348 370.673 348 353ZM436 353C436 335.327 421.673 321 404 321C386.327 321 372 335.327 372 353C372 370.673 386.327 385 404 385C421.673 385 436 370.673 436 353ZM524 353C524 335.327 509.673 321 492 321C474.327 321 460 335.327 460 353C460 370.673 474.327 385 492 385C509.673 385 524 370.673 524 353ZM612 353C612 335.327 597.673 321 580 321C562.327 321 548 335.327 548 353C548 370.673 562.327 385 580 385C597.673 385 612 370.673 612 353ZM84 265C84 247.327 69.6731 233 52 233C34.3269 233 20 247.327 20 265C20 282.673 34.3269 297 52 297C69.6731 297 84 282.673 84 265ZM172 265C172 247.327 157.673 233 140 233C122.327 233 108 247.327 108 265C108 282.673 122.327 297 140 297C157.673 297 172 282.673 172 265ZM260 265C260 247.327 245.673 233 228 233C210.327 233 196 247.327 196 265C196 282.673 210.327 297 228 297C245.673 297 260 282.673 260 265ZM348 265C348 247.327 333.673 233 316 233C298.327 233 284 247.327 284 265C284 282.673 298.327 297 316 297C333.673 297 348 282.673 348 265ZM436 265C436 247.327 421.673 233 404 233C386.327 233 372 247.327 372 265C372 282.673 386.327 297 404 297C421.673 297 436 282.673 436 265ZM524 265C524 247.327 509.673 233 492 233C474.327 233 460 247.327 460 265C460 282.673 474.327 297 492 297C509.673 297 524 282.673 524 265ZM612 265C612 247.327 597.673 233 580 233C562.327 233 548 247.327 548 265C548 282.673 562.327 297 580 297C597.673 297 612 282.673 612 265ZM84 177C84 159.327 69.6731 145 52 145C34.3269 145 20 159.327 20 177C20 194.673 34.3269 209 52 209C69.6731 209 84 194.673 84 177ZM172 177C172 159.327 157.673 145 140 145C122.327 145 108 159.327 108 177C108 194.673 122.327 209 140 209C157.673 209 172 194.673 172 177ZM260 177C260 159.327 245.673 145 228 145C210.327 145 196 159.327 196 177C196 194.673 210.327 209 228 209C245.673 209 260 194.673 260 177ZM348 177C348 159.327 333.673 145 316 145C298.327 145 284 159.327 284 177C284 194.673 298.327 209 316 209C333.673 209 348 194.673 348 177ZM436 177C436 159.327 421.673 145 404 145C386.327 145 372 159.327 372 177C372 194.673 386.327 209 404 209C421.673 209 436 194.673 436 177ZM524 177C524 159.327 509.673 145 492 145C474.327 145 460 159.327 460 177C460 194.673 474.327 209 492 209C509.673 209 524 194.673 524 177ZM612 177C612 159.327 597.673 145 580 145C562.327 145 548 159.327 548 177C548 194.673 562.327 209 580 209C597.673 209 612 194.673 612 177ZM84 89C84 71.3269 69.6731 57 52 57C34.3269 57 20 71.3269 20 89C20 106.673 34.3269 121 52 121C69.6731 121 84 106.673 84 89ZM172 89C172 71.3269 157.673 57 140 57C122.327 57 108 71.3269 108 89C108 106.673 122.327 121 140 121C157.673 121 172 106.673 172 89ZM260 89C260 71.3269 245.673 57 228 57C210.327 57 196 71.3269 196 89C196 106.673 210.327 121 228 121C245.673 121 260 106.673 260 89ZM348 89C348 71.3269 333.673 57 316 57C298.327 57 284 71.3269 284 89C284 106.673 298.327 121 316 121C333.673 121 348 106.673 348 89ZM436 89C436 71.3269 421.673 57 404 57C386.327 57 372 71.3269 372 89C372 106.673 386.327 121 404 121C421.673 121 436 106.673 436 89ZM524 89C524 71.3269 509.673 57 492 57C474.327 57 460 71.3269 460 89C460 106.673 474.327 121 492 121C509.673 121 524 106.673 524 89ZM612 89C612 71.3269 597.673 57 580 57C562.327 57 548 71.3269 548 89C548 106.673 562.327 121 580 121C597.673 121 612 106.673 612 89Z" fill="white"/>
<path d="M0 77H3C3 56.5655 19.5655 40 40 40V37V34C16.2518 34 -3 53.2517 -3 77H0ZM0 581H3V77H0H-3V581H0ZM40 621V618C19.5655 618 3 601.435 3 581H0H-3C-3 604.748 16.2517 624 40 624V621ZM592 621V618H40V621V624H592V621ZM632 581H629C629 601.435 612.435 618 592 618V621V624C615.748 624 635 604.748 635 581H632ZM632 77H629V581H632H635V77H632ZM592 37V40C612.435 40 629 56.5655 629 77H632H635C635 53.2518 615.748 34 592 34V37ZM40 37V40H592V37V34H40V37ZM52 497V500C68.0163 500 81 512.984 81 529H84H87C87 509.67 71.33 494 52 494V497ZM20 529H23C23 512.984 35.9837 500 52 500V497V494C32.67 494 17 509.67 17 529H20ZM52 561V558C35.9837 558 23 545.016 23 529H20H17C17 548.33 32.67 564 52 564V561ZM84 529H81C81 545.016 68.0163 558 52 558V561V564C71.33 564 87 548.33 87 529H84ZM140 497V500C156.016 500 169 512.984 169 529H172H175C175 509.67 159.33 494 140 494V497ZM108 529H111C111 512.984 123.984 500 140 500V497V494C120.67 494 105 509.67 105 529H108ZM140 561V558C123.984 558 111 545.016 111 529H108H105C105 548.33 120.67 564 140 564V561ZM172 529H169C169 545.016 156.016 558 140 558V561V564C159.33 564 175 548.33 175 529H172ZM228 497V500C244.016 500 257 512.984 257 529H260H263C263 509.67 247.33 494 228 494V497ZM196 529H199C199 512.984 211.984 500 228 500V497V494C208.67 494 193 509.67 193 529H196ZM228 561V558C211.984 558 199 545.016 199 529H196H193C193 548.33 208.67 564 228 564V561ZM260 529H257C257 545.016 244.016 558 228 558V561V564C247.33 564 263 548.33 263 529H260ZM316 497V500C332.016 500 345 512.984 345 529H348H351C351 509.67 335.33 494 316 494V497ZM284 529H287C287 512.984 299.984 500 316 500V497V494C296.67 494 281 509.67 281 529H284ZM316 561V558C299.984 558 287 545.016 287 529H284H281C281 548.33 296.67 564 316 564V561ZM348 529H345C345 545.016 332.016 558 316 558V561V564C335.33 564 351 548.33 351 529H348ZM404 497V500C420.016 500 433 512.984 433 529H436H439C439 509.67 423.33 494 404 494V497ZM372 529H375C375 512.984 387.984 500 404 500V497V494C384.67 494 369 509.67 369 529H372ZM404 561V558C387.984 558 375 545.016 375 529H372H369C369 548.33 384.67 564 404 564V561ZM436 529H433C433 545.016 420.016 558 404 558V561V564C423.33 564 439 548.33 439 529H436ZM492 497V500C508.016 500 521 512.984 521 529H524H527C527 509.67 511.33 494 492 494V497ZM460 529H463C463 512.984 475.984 500 492 500V497V494C472.67 494 457 509.67 457 529H460ZM492 561V558C475.984 558 463 545.016 463 529H460H457C457 548.33 472.67 564 492 564V561ZM524 529H521C521 545.016 508.016 558 492 558V561V564C511.33 564 527 548.33 527 529H524ZM580 497V500C596.016 500 609 512.984 609 529H612H615C615 509.67 599.33 494 580 494V497ZM548 529H551C551 512.984 563.984 500 580 500V497V494C560.67 494 545 509.67 545 529H548ZM580 561V558C563.984 558 551 545.016 551 529H548H545C545 548.33 560.67 564 580 564V561ZM612 529H609C609 545.016 596.016 558 580 558V561V564C599.33 564 615 548.33 615 529H612ZM52 409V412C68.0163 412 81 424.984 81 441H84H87C87 421.67 71.33 406 52 406V409ZM20 441H23C23 424.984 35.9837 412 52 412V409V406C32.67 406 17 421.67 17 441H20ZM52 473V470C35.9837 470 23 457.016 23 441H20H17C17 460.33 32.67 476 52 476V473ZM84 441H81C81 457.016 68.0163 470 52 470V473V476C71.33 476 87 460.33 87 441H84ZM140 409V412C156.016 412 169 424.984 169 441H172H175C175 421.67 159.33 406 140 406V409ZM108 441H111C111 424.984 123.984 412 140 412V409V406C120.67 406 105 421.67 105 441H108ZM140 473V470C123.984 470 111 457.016 111 441H108H105C105 460.33 120.67 476 140 476V473ZM172 441H169C169 457.016 156.016 470 140 470V473V476C159.33 476 175 460.33 175 441H172ZM228 409V412C244.016 412 257 424.984 257 441H260H263C263 421.67 247.33 406 228 406V409ZM196 441H199C199 424.984 211.984 412 228 412V409V406C208.67 406 193 421.67 193 441H196ZM228 473V470C211.984 470 199 457.016 199 441H196H193C193 460.33 208.67 476 228 476V473ZM260 441H257C257 457.016 244.016 470 228 470V473V476C247.33 476 263 460.33 263 441H260ZM316 409V412C332.016 412 345 424.984 345 441H348H351C351 421.67 335.33 406 316 406V409ZM284 441H287C287 424.984 299.984 412 316 412V409V406C296.67 406 281 421.67 281 441H284ZM316 473V470C299.984 470 287 457.016 287 441H284H281C281 460.33 296.67 476 316 476V473ZM348 441H345C345 457.016 332.016 470 316 470V473V476C335.33 476 351 460.33 351 441H348ZM404 409V412C420.016 412 433 424.984 433 441H436H439C439 421.67 423.33 406 404 406V409ZM372 441H375C375 424.984 387.984 412 404 412V409V406C384.67 406 369 421.67 369 441H372ZM404 473V470C387.984 470 375 457.016 375 441H372H369C369 460.33 384.67 476 404 476V473ZM436 441H433C433 457.016 420.016 470 404 470V473V476C423.33 476 439 460.33 439 441H436ZM492 409V412C508.016 412 521 424.984 521 441H524H527C527 421.67 511.33 406 492 406V409ZM460 441H463C463 424.984 475.984 412 492 412V409V406C472.67 406 457 421.67 457 441H460ZM492 473V470C475.984 470 463 457.016 463 441H460H457C457 460.33 472.67 476 492 476V473ZM524 441H521C521 457.016 508.016 470 492 470V473V476C511.33 476 527 460.33 527 441H524ZM580 409V412C596.016 412 609 424.984 609 441H612H615C615 421.67 599.33 406 580 406V409ZM548 441H551C551 424.984 563.984 412 580 412V409V406C560.67 406 545 421.67 545 441H548ZM580 473V470C563.984 470 551 457.016 551 441H548H545C545 460.33 560.67 476 580 476V473ZM612 441H609C609 457.016 596.016 470 580 470V473V476C599.33 476 615 460.33 615 441H612ZM52 321V324C68.0163 324 81 336.984 81 353H84H87C87 333.67 71.33 318 52 318V321ZM20 353H23C23 336.984 35.9837 324 52 324V321V318C32.67 318 17 333.67 17 353H20ZM52 385V382C35.9837 382 23 369.016 23 353H20H17C17 372.33 32.67 388 52 388V385ZM84 353H81C81 369.016 68.0163 382 52 382V385V388C71.33 388 87 372.33 87 353H84ZM140 321V324C156.016 324 169 336.984 169 353H172H175C175 333.67 159.33 318 140 318V321ZM108 353H111C111 336.984 123.984 324 140 324V321V318C120.67 318 105 333.67 105 353H108ZM140 385V382C123.984 382 111 369.016 111 353H108H105C105 372.33 120.67 388 140 388V385ZM172 353H169C169 369.016 156.016 382 140 382V385V388C159.33 388 175 372.33 175 353H172ZM228 321V324C244.016 324 257 336.984 257 353H260H263C263 333.67 247.33 318 228 318V321ZM196 353H199C199 336.984 211.984 324 228 324V321V318C208.67 318 193 333.67 193 353H196ZM228 385V382C211.984 382 199 369.016 199 353H196H193C193 372.33 208.67 388 228 388V385ZM260 353H257C257 369.016 244.016 382 228 382V385V388C247.33 388 263 372.33 263 353H260ZM316 321V324C332.016 324 345 336.984 345 353H348H351C351 333.67 335.33 318 316 318V321ZM284 353H287C287 336.984 299.984 324 316 324V321V318C296.67 318 281 333.67 281 353H284ZM316 385V382C299.984 382 287 369.016 287 353H284H281C281 372.33 296.67 388 316 388V385ZM348 353H345C345 369.016 332.016 382 316 382V385V388C335.33 388 351 372.33 351 353H348ZM404 321V324C420.016 324 433 336.984 433 353H436H439C439 333.67 423.33 318 404 318V321ZM372 353H375C375 336.984 387.984 324 404 324V321V318C384.67 318 369 333.67 369 353H372ZM404 385V382C387.984 382 375 369.016 375 353H372H369C369 372.33 384.67 388 404 388V385ZM436 353H433C433 369.016 420.016 382 404 382V385V388C423.33 388 439 372.33 439 353H436ZM492 321V324C508.016 324 521 336.984 521 353H524H527C527 333.67 511.33 318 492 318V321ZM460 353H463C463 336.984 475.984 324 492 324V321V318C472.67 318 457 333.67 457 353H460ZM492 385V382C475.984 382 463 369.016 463 353H460H457C457 372.33 472.67 388 492 388V385ZM524 353H521C521 369.016 508.016 382 492 382V385V388C511.33 388 527 372.33 527 353H524ZM580 321V324C596.016 324 609 336.984 609 353H612H615C615 333.67 599.33 318 580 318V321ZM548 353H551C551 336.984 563.984 324 580 324V321V318C560.67 318 545 333.67 545 353H548ZM580 385V382C563.984 382 551 369.016 551 353H548H545C545 372.33 560.67 388 580 388V385ZM612 353H609C609 369.016 596.016 382 580 382V385V388C599.33 388 615 372.33 615 353H612ZM52 233V236C68.0163 236 81 248.984 81 265H84H87C87 245.67 71.33 230 52 230V233ZM20 265H23C23 248.984 35.9837 236 52 236V233V230C32.67 230 17 245.67 17 265H20ZM52 297V294C35.9837 294 23 281.016 23 265H20H17C17 284.33 32.67 300 52 300V297ZM84 265H81C81 281.016 68.0163 294 52 294V297V300C71.33 300 87 284.33 87 265H84ZM140 233V236C156.016 236 169 248.984 169 265H172H175C175 245.67 159.33 230 140 230V233ZM108 265H111C111 248.984 123.984 236 140 236V233V230C120.67 230 105 245.67 105 265H108ZM140 297V294C123.984 294 111 281.016 111 265H108H105C105 284.33 120.67 300 140 300V297ZM172 265H169C169 281.016 156.016 294 140 294V297V300C159.33 300 175 284.33 175 265H172ZM228 233V236C244.016 236 257 248.984 257 265H260H263C263 245.67 247.33 230 228 230V233ZM196 265H199C199 248.984 211.984 236 228 236V233V230C208.67 230 193 245.67 193 265H196ZM228 297V294C211.984 294 199 281.016 199 265H196H193C193 284.33 208.67 300 228 300V297ZM260 265H257C257 281.016 244.016 294 228 294V297V300C247.33 300 263 284.33 263 265H260ZM316 233V236C332.016 236 345 248.984 345 265H348H351C351 245.67 335.33 230 316 230V233ZM284 265H287C287 248.984 299.984 236 316 236V233V230C296.67 230 281 245.67 281 265H284ZM316 297V294C299.984 294 287 281.016 287 265H284H281C281 284.33 296.67 300 316 300V297ZM348 265H345C345 281.016 332.016 294 316 294V297V300C335.33 300 351 284.33 351 265H348ZM404 233V236C420.016 236 433 248.984 433 265H436H439C439 245.67 423.33 230 404 230V233ZM372 265H375C375 248.984 387.984 236 404 236V233V230C384.67 230 369 245.67 369 265H372ZM404 297V294C387.984 294 375 281.016 375 265H372H369C369 284.33 384.67 300 404 300V297ZM436 265H433C433 281.016 420.016 294 404 294V297V300C423.33 300 439 284.33 439 265H436ZM492 233V236C508.016 236 521 248.984 521 265H524H527C527 245.67 511.33 230 492 230V233ZM460 265H463C463 248.984 475.984 236 492 236V233V230C472.67 230 457 245.67 457 265H460ZM492 297V294C475.984 294 463 281.016 463 265H460H457C457 284.33 472.67 300 492 300V297ZM524 265H521C521 281.016 508.016 294 492 294V297V300C511.33 300 527 284.33 527 265H524ZM580 233V236C596.016 236 609 248.984 609 265H612H615C615 245.67 599.33 230 580 230V233ZM548 265H551C551 248.984 563.984 236 580 236V233V230C560.67 230 545 245.67 545 265H548ZM580 297V294C563.984 294 551 281.016 551 265H548H545C545 284.33 560.67 300 580 300V297ZM612 265H609C609 281.016 596.016 294 580 294V297V300C599.33 300 615 284.33 615 265H612ZM52 145V148C68.0163 148 81 160.984 81 177H84H87C87 157.67 71.33 142 52 142V145ZM20 177H23C23 160.984 35.9837 148 52 148V145V142C32.67 142 17 157.67 17 177H20ZM52 209V206C35.9837 206 23 193.016 23 177H20H17C17 196.33 32.67 212 52 212V209ZM84 177H81C81 193.016 68.0163 206 52 206V209V212C71.33 212 87 196.33 87 177H84ZM140 145V148C156.016 148 169 160.984 169 177H172H175C175 157.67 159.33 142 140 142V145ZM108 177H111C111 160.984 123.984 148 140 148V145V142C120.67 142 105 157.67 105 177H108ZM140 209V206C123.984 206 111 193.016 111 177H108H105C105 196.33 120.67 212 140 212V209ZM172 177H169C169 193.016 156.016 206 140 206V209V212C159.33 212 175 196.33 175 177H172ZM228 145V148C244.016 148 257 160.984 257 177H260H263C263 157.67 247.33 142 228 142V145ZM196 177H199C199 160.984 211.984 148 228 148V145V142C208.67 142 193 157.67 193 177H196ZM228 209V206C211.984 206 199 193.016 199 177H196H193C193 196.33 208.67 212 228 212V209ZM260 177H257C257 193.016 244.016 206 228 206V209V212C247.33 212 263 196.33 263 177H260ZM316 145V148C332.016 148 345 160.984 345 177H348H351C351 157.67 335.33 142 316 142V145ZM284 177H287C287 160.984 299.984 148 316 148V145V142C296.67 142 281 157.67 281 177H284ZM316 209V206C299.984 206 287 193.016 287 177H284H281C281 196.33 296.67 212 316 212V209ZM348 177H345C345 193.016 332.016 206 316 206V209V212C335.33 212 351 196.33 351 177H348ZM404 145V148C420.016 148 433 160.984 433 177H436H439C439 157.67 423.33 142 404 142V145ZM372 177H375C375 160.984 387.984 148 404 148V145V142C384.67 142 369 157.67 369 177H372ZM404 209V206C387.984 206 375 193.016 375 177H372H369C369 196.33 384.67 212 404 212V209ZM436 177H433C433 193.016 420.016 206 404 206V209V212C423.33 212 439 196.33 439 177H436ZM492 145V148C508.016 148 521 160.984 521 177H524H527C527 157.67 511.33 142 492 142V145ZM460 177H463C463 160.984 475.984 148 492 148V145V142C472.67 142 457 157.67 457 177H460ZM492 209V206C475.984 206 463 193.016 463 177H460H457C457 196.33 472.67 212 492 212V209ZM524 177H521C521 193.016 508.016 206 492 206V209V212C511.33 212 527 196.33 527 177H524ZM580 145V148C596.016 148 609 160.984 609 177H612H615C615 157.67 599.33 142 580 142V145ZM548 177H551C551 160.984 563.984 148 580 148V145V142C560.67 142 545 157.67 545 177H548ZM580 209V206C563.984 206 551 193.016 551 177H548H545C545 196.33 560.67 212 580 212V209ZM612 177H609C609 193.016 596.016 206 580 206V209V212C599.33 212 615 196.33 615 177H612ZM52 57V60C68.0163 60 81 72.9837 81 89H84H87C87 69.67 71.33 54 52 54V57ZM20 89H23C23 72.9837 35.9837 60 52 60V57V54C32.67 54 17 69.67 17 89H20ZM52 121V118C35.9837 118 23 105.016 23 89H20H17C17 108.33 32.67 124 52 124V121ZM84 89H81C81 105.016 68.0163 118 52 118V121V124C71.33 124 87 108.33 87 89H84ZM140 57V60C156.016 60 169 72.9837 169 89H172H175C175 69.67 159.33 54 140 54V57ZM108 89H111C111 72.9837 123.984 60 140 60V57V54C120.67 54 105 69.67 105 89H108ZM140 121V118C123.984 118 111 105.016 111 89H108H105C105 108.33 120.67 124 140 124V121ZM172 89H169C169 105.016 156.016 118 140 118V121V124C159.33 124 175 108.33 175 89H172ZM228 57V60C244.016 60 257 72.9837 257 89H260H263C263 69.67 247.33 54 228 54V57ZM196 89H199C199 72.9837 211.984 60 228 60V57V54C208.67 54 193 69.67 193 89H196ZM228 121V118C211.984 118 199 105.016 199 89H196H193C193 108.33 208.67 124 228 124V121ZM260 89H257C257 105.016 244.016 118 228 118V121V124C247.33 124 263 108.33 263 89H260ZM316 57V60C332.016 60 345 72.9837 345 89H348H351C351 69.67 335.33 54 316 54V57ZM284 89H287C287 72.9837 299.984 60 316 60V57V54C296.67 54 281 69.67 281 89H284ZM316 121V118C299.984 118 287 105.016 287 89H284H281C281 108.33 296.67 124 316 124V121ZM348 89H345C345 105.016 332.016 118 316 118V121V124C335.33 124 351 108.33 351 89H348ZM404 57V60C420.016 60 433 72.9837 433 89H436H439C439 69.67 423.33 54 404 54V57ZM372 89H375C375 72.9837 387.984 60 404 60V57V54C384.67 54 369 69.67 369 89H372ZM404 121V118C387.984 118 375 105.016 375 89H372H369C369 108.33 384.67 124 404 124V121ZM436 89H433C433 105.016 420.016 118 404 118V121V124C423.33 124 439 108.33 439 89H436ZM492 57V60C508.016 60 521 72.9837 521 89H524H527C527 69.67 511.33 54 492 54V57ZM460 89H463C463 72.9837 475.984 60 492 60V57V54C472.67 54 457 69.67 457 89H460ZM492 121V118C475.984 118 463 105.016 463 89H460H457C457 108.33 472.67 124 492 124V121ZM524 89H521C521 105.016 508.016 118 492 118V121V124C511.33 124 527 108.33 527 89H524ZM580 57V60C596.016 60 609 72.9837 609 89H612H615C615 69.67 599.33 54 580 54V57ZM548 89H551C551 72.9837 563.984 60 580 60V57V54C560.67 54 545 69.67 545 89H548ZM580 121V118C563.984 118 551 105.016 551 89H548H545C545 108.33 560.67 124 580 124V121ZM612 89H609C609 105.016 596.016 118 580 118V121V124C599.33 124 615 108.33 615 89H612Z" fill="black" mask="url(#path-3-inside-2_4185_3713)"/>
<g filter="url(#filter1_d_4185_3713)">
<path fill-rule="evenodd" clip-rule="evenodd" d="M124 14.1144C124 16.0081 124.894 17.7907 126.412 18.9232L136.347 26.3365C138.466 27.9181 141.372 27.9254 143.499 26.3544L153.564 18.9223C155.096 17.7911 156 15.9999 156 14.0956V9C156 5.68629 153.314 3 150 3H130C126.686 3 124 5.68629 124 9V14.1144Z" fill="#FD6687"/>
<path d="M135.449 27.5391C138.099 29.516 141.73 29.5249 144.39 27.5615L154.455 20.1289C156.37 18.7149 157.5 16.476 157.5 14.0957V9C157.5 4.85787 154.142 1.5 150 1.5H130C125.858 1.5 122.5 4.85787 122.5 9V14.1143C122.5 16.4813 123.618 18.7093 125.515 20.125L135.449 27.5391Z" stroke="black" stroke-width="3"/>
</g>
<defs>
<filter id="filter0_d_4185_3713" x="0" y="37" width="632" height="594" filterUnits="userSpaceOnUse" color-interpolation-filters="sRGB">
<feFlood flood-opacity="0" result="BackgroundImageFix"/>
<feColorMatrix in="SourceAlpha" type="matrix" values="0 0 0 0 0 0 0 0 0 0 0 0 0 0 0 0 0 0 127 0" result="hardAlpha"/>
<feOffset dy="10"/>
<feColorMatrix type="matrix" values="0 0 0 0 0 0 0 0 0 0 0 0 0 0 0 0 0 0 1 0"/>
<feBlend mode="normal" in2="BackgroundImageFix" result="effect1_dropShadow_4185_3713"/>
<feBlend mode="normal" in="SourceGraphic" in2="effect1_dropShadow_4185_3713" result="shape"/>
</filter>
<filter id="filter1_d_4185_3713" x="121" y="0" width="38" height="35.5277" filterUnits="userSpaceOnUse" color-interpolation-filters="sRGB">
<feFlood flood-opacity="0" result="BackgroundImageFix"/>
<feColorMatrix in="SourceAlpha" type="matrix" values="0 0 0 0 0 0 0 0 0 0 0 0 0 0 0 0 0 0 127 0" result="hardAlpha"/>
<feOffset dy="5"/>
<feColorMatrix type="matrix" values="0 0 0 0 0 0 0 0 0 0 0 0 0 0 0 0 0 0 1 0"/>
<feBlend mode="normal" in2="BackgroundImageFix" result="effect1_dropShadow_4185_3713"/>
<feBlend mode="normal" in="SourceGraphic" in2="effect1_dropShadow_4185_3713" result="shape"/>
</filter>
</defs>
</svg>
